<svg id="svg" version="1.1" xmlns="http://www.w3.org/2000/svg" xmlns:xlink="http://www.w3.org/1999/xlink" width="400" height="100" viewBox="0, 0, 400,100"><g id="svgg"><path id="path0" d="M46.957 0.188 C 46.797 0.277,46.667 0.456,46.667 0.586 C 46.667 0.716,46.571 0.786,46.454 0.741 C 46.336 0.696,46.093 0.778,45.912 0.922 C 45.594 1.177,45.595 1.179,45.958 1.003 C 46.165 0.903,46.333 0.880,46.333 0.952 C 46.332 1.024,46.001 1.220,45.596 1.386 C 45.191 1.553,44.647 1.871,44.388 2.094 C 44.129 2.317,43.790 2.500,43.635 2.500 C 43.480 2.500,43.306 2.576,43.248 2.669 C 43.191 2.763,43.062 2.788,42.963 2.727 C 42.853 2.659,42.830 2.693,42.903 2.812 C 43.021 3.002,41.744 3.705,41.167 3.769 C 40.822 3.806,40.000 4.140,40.000 4.242 C 40.000 4.288,40.188 4.254,40.417 4.167 C 41.078 3.915,40.901 4.126,40.144 4.492 C 39.765 4.675,39.390 4.785,39.311 4.736 C 39.231 4.687,39.167 4.747,39.167 4.869 C 39.167 4.991,38.885 5.235,38.542 5.412 C 38.198 5.588,37.748 5.881,37.542 6.062 C 37.335 6.243,37.167 6.339,37.167 6.275 C 37.167 6.211,36.979 6.282,36.750 6.432 C 36.455 6.625,36.333 6.645,36.333 6.499 C 36.333 6.335,36.282 6.335,36.085 6.498 C 35.949 6.612,35.871 6.760,35.913 6.828 C 36.033 7.021,35.203 7.337,34.891 7.217 C 34.711 7.148,34.652 7.175,34.725 7.293 C 34.850 7.495,34.606 7.698,34.186 7.744 C 33.840 7.781,33.000 8.133,33.000 8.241 C 33.000 8.286,33.112 8.280,33.250 8.227 C 33.772 8.027,33.469 8.322,32.729 8.736 C 31.854 9.225,31.619 9.288,32.093 8.906 C 32.307 8.734,32.332 8.667,32.167 8.709 C 32.029 8.743,31.843 8.935,31.752 9.136 C 31.662 9.336,31.493 9.500,31.377 9.500 C 30.972 9.500,30.916 9.525,30.779 9.769 C 30.692 9.926,30.511 9.978,30.279 9.913 C 30.024 9.841,29.983 9.858,30.143 9.968 C 30.441 10.175,30.127 10.372,29.738 10.222 C 29.525 10.140,29.482 10.169,29.579 10.327 C 29.669 10.472,29.637 10.517,29.482 10.464 C 29.354 10.420,29.092 10.553,28.898 10.759 C 28.397 11.293,27.503 11.739,27.489 11.463 C 27.484 11.346,27.411 11.420,27.327 11.627 C 27.244 11.835,26.986 12.079,26.754 12.169 C 26.523 12.259,26.127 12.420,25.875 12.527 C 25.623 12.633,25.360 12.708,25.292 12.694 C 25.223 12.679,25.167 12.768,25.167 12.891 C 25.167 13.102,24.381 13.518,23.545 13.751 C 23.341 13.807,23.191 13.943,23.212 14.052 C 23.235 14.175,23.077 14.232,22.792 14.202 C 22.263 14.147,21.666 14.419,21.669 14.714 C 21.671 14.844,21.735 14.827,21.849 14.667 C 22.006 14.444,22.017 14.444,21.950 14.667 C 21.909 14.804,21.778 14.894,21.660 14.866 C 21.412 14.807,20.453 15.175,20.564 15.286 C 20.605 15.327,20.801 15.273,21.000 15.167 C 21.199 15.060,21.401 15.012,21.449 15.060 C 21.497 15.108,21.249 15.267,20.899 15.413 C 20.548 15.560,20.204 15.770,20.133 15.881 C 20.041 16.026,20.004 16.029,20.003 15.891 C 20.000 15.679,19.385 15.782,19.239 16.018 C 19.190 16.098,19.266 16.118,19.408 16.064 C 19.550 16.009,19.667 16.014,19.667 16.074 C 19.667 16.203,18.475 16.743,18.292 16.698 C 18.223 16.681,18.167 16.779,18.167 16.917 C 18.167 17.054,18.087 17.167,17.990 17.167 C 17.893 17.167,17.862 17.073,17.921 16.958 C 17.980 16.844,17.882 16.930,17.703 17.150 C 17.470 17.437,17.356 17.486,17.302 17.324 C 17.246 17.154,17.035 17.219,16.459 17.584 C 16.036 17.851,15.725 18.126,15.766 18.193 C 15.808 18.261,15.691 18.398,15.505 18.498 C 15.277 18.619,15.167 18.622,15.167 18.506 C 15.167 18.411,15.254 18.333,15.361 18.333 C 15.468 18.333,15.516 18.294,15.468 18.246 C 15.300 18.078,14.815 18.379,14.900 18.600 C 14.947 18.722,14.902 18.874,14.800 18.937 C 14.682 19.010,14.659 18.968,14.737 18.817 C 14.826 18.646,14.799 18.650,14.637 18.833 C 14.131 19.407,13.761 19.613,13.888 19.250 C 13.988 18.963,13.963 18.970,13.703 19.301 C 13.537 19.513,13.217 19.792,12.992 19.922 C 12.167 20.398,11.412 20.727,11.221 20.693 C 11.113 20.674,10.978 20.735,10.919 20.829 C 10.861 20.923,10.912 21.003,11.032 21.007 C 11.152 21.010,10.995 21.124,10.683 21.259 C 10.371 21.394,10.078 21.466,10.030 21.419 C 9.983 21.372,10.044 21.333,10.167 21.333 C 10.289 21.333,10.350 21.294,10.302 21.246 C 10.149 21.094,9.667 21.360,9.667 21.596 C 9.667 21.730,9.564 21.783,9.415 21.726 C 9.235 21.657,9.192 21.706,9.266 21.898 C 9.335 22.079,9.278 22.167,9.091 22.167 C 8.924 22.167,8.861 22.090,8.933 21.974 C 9.007 21.854,8.978 21.827,8.856 21.902 C 8.749 21.969,8.698 22.082,8.742 22.154 C 8.838 22.310,8.006 22.740,7.708 22.688 C 7.594 22.668,7.500 22.756,7.500 22.884 C 7.500 23.115,6.373 23.723,6.113 23.632 C 6.038 23.605,5.899 23.722,5.805 23.891 C 5.710 24.060,5.373 24.307,5.055 24.439 C 4.100 24.838,3.318 24.329,15.297 31.112 C 15.689 31.334,17.179 32.186,18.608 33.004 C 20.733 34.220,21.263 34.460,21.523 34.321 C 21.697 34.228,21.914 34.197,22.003 34.252 C 22.093 34.308,22.167 34.245,22.167 34.113 C 22.167 33.851,23.057 33.413,23.293 33.558 C 23.373 33.608,23.547 33.496,23.678 33.310 C 23.951 32.922,25.009 32.336,25.452 32.327 C 25.616 32.324,25.938 32.209,26.167 32.070 C 26.551 31.839,26.555 31.827,26.208 31.921 C 25.610 32.083,25.773 31.878,26.542 31.503 C 26.931 31.313,27.587 30.964,28.000 30.727 C 28.412 30.490,28.850 30.281,28.972 30.262 C 29.094 30.242,29.244 30.149,29.305 30.053 C 29.515 29.727,30.500 29.303,30.502 29.537 C 30.504 29.654,30.598 29.568,30.711 29.346 C 30.824 29.125,31.029 28.910,31.167 28.869 C 31.316 28.825,31.283 28.901,31.083 29.059 C 30.625 29.422,30.816 29.398,31.595 28.994 C 32.012 28.778,32.098 28.691,31.833 28.754 C 31.557 28.820,31.693 28.676,32.239 28.324 C 32.692 28.033,33.228 27.784,33.432 27.772 C 33.635 27.760,33.767 27.694,33.725 27.626 C 33.682 27.557,33.840 27.414,34.074 27.307 C 34.308 27.201,34.500 27.042,34.500 26.955 C 34.500 26.868,34.706 26.845,34.958 26.904 C 35.212 26.963,35.327 26.950,35.215 26.874 C 35.068 26.775,35.102 26.683,35.340 26.535 C 35.555 26.400,35.667 26.391,35.667 26.508 C 35.667 26.606,35.743 26.639,35.836 26.582 C 35.929 26.524,35.954 26.394,35.892 26.293 C 35.818 26.174,35.879 26.148,36.065 26.220 C 36.228 26.282,36.309 26.262,36.253 26.172 C 36.125 25.965,37.128 25.450,37.432 25.566 C 37.567 25.618,37.667 25.554,37.667 25.417 C 37.667 25.269,37.766 25.215,37.923 25.276 C 38.083 25.337,38.162 25.292,38.132 25.156 C 38.077 24.908,39.220 24.284,39.306 24.516 C 39.390 24.745,39.685 24.696,39.654 24.458 C 39.606 24.083,39.664 23.833,39.792 23.872 C 39.923 23.912,41.126 23.335,41.833 22.891 C 42.219 22.650,42.226 22.650,41.926 22.898 C 41.749 23.046,41.688 23.167,41.792 23.167 C 41.896 23.167,42.088 23.014,42.219 22.826 C 42.351 22.639,42.524 22.501,42.604 22.519 C 42.889 22.583,43.888 22.046,43.649 21.957 C 43.340 21.842,44.630 21.272,45.125 21.305 C 45.331 21.318,45.500 21.258,45.500 21.170 C 45.500 21.082,45.369 21.057,45.208 21.113 C 45.005 21.185,44.967 21.161,45.083 21.037 C 45.250 20.858,47.429 19.667,47.590 19.667 C 47.637 19.667,47.654 22.254,47.629 25.417 C 47.604 28.579,47.641 31.167,47.712 31.167 C 47.783 31.167,47.836 28.524,47.829 25.294 C 47.821 21.332,47.874 19.403,47.992 19.364 C 48.112 19.324,48.167 21.168,48.167 25.231 C 48.167 30.804,48.184 31.150,48.458 31.049 C 48.619 30.990,50.288 30.067,52.167 29.000 C 54.046 27.932,57.608 25.910,60.083 24.506 C 62.558 23.102,64.715 21.840,64.875 21.701 C 65.143 21.469,65.167 20.952,65.167 15.387 L 65.167 9.325 64.750 9.167 C 64.476 9.062,64.332 8.879,64.331 8.629 C 64.329 8.354,64.289 8.312,64.185 8.476 C 64.072 8.655,63.967 8.661,63.674 8.504 C 63.471 8.395,63.348 8.264,63.400 8.211 C 63.510 8.101,62.995 7.677,62.750 7.677 C 62.658 7.677,62.729 7.787,62.907 7.922 C 63.434 8.320,63.065 8.201,62.422 7.765 C 62.096 7.543,61.887 7.331,61.956 7.292 C 62.026 7.253,61.989 7.244,61.874 7.273 C 61.588 7.343,60.761 7.017,60.892 6.886 C 61.066 6.712,60.660 6.346,60.402 6.445 C 60.270 6.496,60.063 6.455,59.941 6.353 C 59.819 6.252,59.670 6.219,59.610 6.279 C 59.549 6.340,59.500 6.264,59.500 6.111 C 59.500 5.958,59.369 5.833,59.208 5.832 C 58.866 5.831,57.973 5.275,57.972 5.063 C 57.972 4.982,57.929 4.879,57.876 4.833 C 57.823 4.787,57.834 4.844,57.900 4.958 C 58.077 5.266,57.894 5.216,57.071 4.734 C 56.665 4.496,56.368 4.245,56.411 4.175 C 56.454 4.106,56.304 3.964,56.078 3.861 C 55.852 3.758,55.667 3.735,55.667 3.810 C 55.667 3.885,55.258 3.752,54.759 3.515 C 54.203 3.251,53.879 2.999,53.923 2.866 C 53.963 2.747,53.941 2.683,53.873 2.725 C 53.713 2.823,52.361 2.132,52.298 1.920 C 52.272 1.830,52.175 1.751,52.083 1.744 C 51.743 1.718,51.338 1.461,51.422 1.324 C 51.470 1.247,51.362 1.105,51.182 1.008 C 50.705 0.753,50.552 0.795,50.926 1.078 C 51.104 1.213,51.171 1.325,51.074 1.328 C 50.976 1.331,50.751 1.223,50.574 1.089 C 50.396 0.954,50.317 0.842,50.399 0.839 C 50.596 0.832,49.696 0.000,49.491 0.000 C 49.404 0.000,49.332 0.094,49.331 0.208 C 49.329 0.339,49.282 0.354,49.206 0.249 C 49.050 0.035,47.667 0.007,47.667 0.217 C 47.667 0.306,47.576 0.299,47.457 0.200 C 47.318 0.085,47.148 0.080,46.957 0.188 M65.333 15.167 C 65.333 19.588,65.379 20.834,65.542 20.836 C 65.681 20.838,65.667 20.892,65.500 21.000 C 65.362 21.089,65.325 21.160,65.417 21.159 C 65.508 21.157,65.733 21.036,65.917 20.889 C 66.187 20.672,66.195 20.641,65.958 20.722 C 65.684 20.817,65.667 20.480,65.667 15.161 C 65.667 11.498,65.608 9.500,65.500 9.500 C 65.392 9.500,65.333 11.500,65.333 15.167 M27.907 11.078 C 27.729 11.213,27.663 11.325,27.760 11.328 C 27.857 11.331,28.082 11.223,28.260 11.089 C 28.438 10.954,28.504 10.842,28.407 10.839 C 28.310 10.836,28.085 10.943,27.907 11.078 M26.350 11.926 C 26.038 12.061,25.819 12.208,25.863 12.252 C 25.907 12.296,26.237 12.185,26.597 12.006 C 27.360 11.625,27.178 11.566,26.350 11.926 M74.929 15.429 C 74.604 15.754,74.596 15.850,74.904 15.732 C 75.034 15.682,75.182 15.534,75.232 15.404 C 75.350 15.096,75.254 15.104,74.929 15.429 M72.074 17.078 C 71.653 17.396,71.835 17.400,72.439 17.084 C 72.702 16.947,72.800 16.835,72.657 16.834 C 72.514 16.834,72.251 16.943,72.074 17.078 M79.833 17.500 C 80.219 17.835,80.333 17.894,80.333 17.762 C 80.333 17.615,79.803 17.167,79.629 17.167 C 79.530 17.167,79.622 17.317,79.833 17.500 M70.740 17.911 C 70.562 18.046,70.492 18.156,70.583 18.156 C 70.675 18.156,70.896 18.046,71.074 17.911 C 71.251 17.777,71.322 17.667,71.230 17.667 C 71.139 17.667,70.918 17.777,70.740 17.911 M80.810 17.990 C 81.027 18.179,81.283 18.333,81.380 18.333 C 81.585 18.333,81.575 18.325,80.917 17.940 L 80.417 17.647 80.810 17.990 M86.833 21.500 C 87.045 21.683,87.293 21.833,87.384 21.833 C 87.476 21.833,87.378 21.683,87.167 21.500 C 86.955 21.317,86.707 21.167,86.616 21.167 C 86.524 21.167,86.622 21.317,86.833 21.500 M91.329 24.078 C 91.429 24.199,91.663 24.337,91.848 24.386 C 92.112 24.455,92.146 24.426,92.004 24.255 C 91.904 24.135,91.671 23.996,91.485 23.948 C 91.221 23.879,91.187 23.907,91.329 24.078 M43.111 33.444 C 43.050 33.506,43.005 33.712,43.011 33.903 C 43.020 34.222,43.034 34.218,43.181 33.851 C 43.344 33.443,43.310 33.245,43.111 33.444 M21.746 49.583 C 21.747 57.833,21.767 61.184,21.792 57.029 C 21.816 52.874,21.816 46.124,21.792 42.029 C 21.767 37.934,21.746 41.333,21.746 49.583 M75.080 50.167 C 75.080 58.462,75.100 61.856,75.125 57.708 C 75.150 53.560,75.150 46.773,75.125 42.625 C 75.100 38.477,75.080 41.871,75.080 50.167 M37.672 36.621 C 37.454 36.867,37.460 36.884,37.727 36.782 C 37.892 36.718,38.059 36.667,38.097 36.667 C 38.135 36.667,38.167 36.592,38.167 36.500 C 38.167 36.255,37.951 36.308,37.672 36.621 M71.740 37.078 C 71.562 37.213,71.492 37.323,71.583 37.323 C 71.675 37.323,71.896 37.213,72.074 37.078 C 72.251 36.943,72.322 36.833,72.230 36.833 C 72.139 36.833,71.918 36.943,71.740 37.078 M33.333 39.030 C 33.095 39.130,33.004 39.238,33.121 39.281 C 33.233 39.324,33.493 39.240,33.699 39.096 C 34.123 38.799,33.954 38.769,33.333 39.030 M67.083 39.770 L 66.583 40.194 67.125 39.926 C 67.423 39.779,67.667 39.585,67.667 39.496 C 67.667 39.278,67.657 39.282,67.083 39.770 M66.167 40.315 C 66.167 40.428,66.092 40.473,66.000 40.417 C 65.908 40.360,65.833 40.393,65.833 40.490 C 65.833 40.587,65.721 40.667,65.583 40.667 C 65.364 40.667,65.333 41.806,65.333 49.917 C 65.333 55.972,65.391 59.167,65.500 59.167 C 65.609 59.167,65.667 56.007,65.667 50.020 L 65.667 40.874 66.042 40.622 C 66.248 40.483,66.360 40.312,66.292 40.240 C 66.223 40.169,66.167 40.203,66.167 40.315 M31.278 40.444 C 31.217 40.506,31.167 44.691,31.167 49.744 C 31.167 56.867,31.120 58.983,30.958 59.154 C 30.790 59.332,30.798 59.360,31.000 59.299 C 31.218 59.232,31.256 58.021,31.293 49.944 C 31.321 43.952,31.395 40.667,31.501 40.667 C 31.609 40.667,31.667 43.913,31.667 49.917 C 31.667 55.972,31.724 59.167,31.833 59.167 C 32.100 59.167,32.059 78.077,31.792 78.299 C 31.630 78.432,31.594 79.834,31.629 84.496 L 31.675 90.520 32.283 90.774 C 32.763 90.975,32.841 91.064,32.654 91.197 C 32.469 91.328,32.486 91.342,32.729 91.263 C 33.144 91.128,33.610 91.488,33.300 91.705 C 33.156 91.804,33.209 91.820,33.456 91.750 C 33.938 91.615,34.838 92.127,34.709 92.463 C 34.641 92.640,34.702 92.678,34.933 92.606 C 35.107 92.552,35.362 92.580,35.500 92.668 C 35.637 92.756,35.679 92.829,35.593 92.831 C 35.300 92.836,36.082 93.323,36.391 93.328 C 36.820 93.335,37.848 93.842,37.751 93.998 C 37.708 94.068,37.896 94.171,38.169 94.226 C 38.454 94.283,38.667 94.431,38.667 94.573 C 38.667 94.826,39.294 95.261,39.444 95.112 C 39.488 95.067,39.369 94.981,39.179 94.921 C 38.989 94.860,38.833 94.739,38.833 94.651 C 38.833 94.493,39.839 94.936,40.000 95.165 C 40.046 95.230,40.254 95.373,40.463 95.483 C 40.672 95.593,40.803 95.747,40.756 95.824 C 40.661 95.978,41.138 96.236,41.434 96.191 C 41.761 96.142,43.167 96.843,43.167 97.056 C 43.167 97.169,43.314 97.273,43.493 97.287 C 43.673 97.301,44.165 97.523,44.586 97.781 C 45.008 98.039,45.619 98.386,45.944 98.551 C 46.270 98.717,46.497 98.892,46.449 98.940 C 46.401 98.988,46.187 98.937,45.973 98.826 C 45.648 98.659,45.619 98.663,45.795 98.849 C 45.911 98.972,46.211 99.088,46.461 99.106 C 46.712 99.125,46.977 99.146,47.052 99.153 C 47.126 99.161,47.135 99.250,47.072 99.351 C 46.993 99.480,46.915 99.467,46.815 99.309 C 46.715 99.152,46.671 99.145,46.669 99.286 C 46.665 99.606,47.248 99.852,47.474 99.626 C 47.620 99.480,47.667 99.503,47.667 99.717 C 47.667 99.876,47.794 99.999,47.958 99.997 C 48.164 99.996,48.189 99.956,48.044 99.864 C 47.922 99.786,48.073 99.733,48.417 99.733 C 48.760 99.733,48.912 99.786,48.789 99.864 C 48.644 99.956,48.670 99.996,48.875 99.997 C 49.035 99.999,49.167 99.895,49.167 99.766 C 49.167 99.607,49.284 99.562,49.528 99.626 C 49.812 99.700,49.867 99.662,49.785 99.449 C 49.728 99.299,49.747 99.137,49.826 99.088 C 49.906 99.038,49.997 99.070,50.027 99.157 C 50.058 99.245,50.383 99.169,50.750 98.989 C 51.117 98.809,51.267 98.708,51.083 98.766 C 50.212 99.040,50.143 98.994,50.821 98.591 C 51.226 98.350,51.656 98.191,51.777 98.237 C 51.897 98.284,51.978 98.240,51.956 98.140 C 51.935 98.040,52.021 97.920,52.148 97.874 C 52.303 97.818,52.336 97.861,52.247 98.004 C 52.160 98.146,52.181 98.177,52.310 98.098 C 52.418 98.031,52.469 97.918,52.425 97.847 C 52.318 97.674,53.568 97.073,53.887 97.144 C 53.963 97.161,53.979 97.101,53.924 97.011 C 53.868 96.921,54.050 96.730,54.328 96.586 C 54.615 96.438,54.833 96.399,54.833 96.496 C 54.833 96.590,54.746 96.667,54.639 96.667 C 54.532 96.667,54.484 96.706,54.532 96.754 C 54.674 96.897,55.173 96.645,55.072 96.481 C 54.947 96.279,55.289 95.976,56.030 95.633 C 56.425 95.451,56.665 95.413,56.703 95.526 C 56.736 95.625,56.871 95.570,57.006 95.403 C 57.153 95.222,57.167 95.152,57.042 95.228 C 56.927 95.297,56.833 95.283,56.833 95.197 C 56.833 95.111,57.203 94.882,57.654 94.688 C 58.105 94.494,58.575 94.241,58.698 94.126 C 59.045 93.802,60.110 93.293,60.535 93.249 C 61.090 93.191,61.108 93.177,60.838 93.006 C 60.633 92.877,60.647 92.834,60.921 92.747 C 61.102 92.689,61.381 92.572,61.542 92.486 C 61.730 92.386,61.833 92.390,61.833 92.499 C 61.833 92.806,62.142 92.672,62.255 92.317 C 62.370 91.956,63.733 91.229,64.142 91.311 C 64.277 91.338,64.318 91.277,64.245 91.159 C 64.112 90.943,64.442 90.670,64.833 90.675 C 65.023 90.677,65.005 90.736,64.760 90.922 C 64.582 91.057,64.516 91.167,64.614 91.167 C 64.845 91.167,65.193 90.749,65.068 90.623 C 64.924 90.479,65.647 90.135,65.841 90.255 C 65.933 90.312,65.988 90.271,65.962 90.164 C 65.902 89.910,67.061 89.267,67.142 89.511 C 67.175 89.609,67.312 89.533,67.446 89.342 C 67.739 88.924,69.239 88.133,69.423 88.299 C 69.495 88.364,69.499 88.321,69.431 88.205 C 69.350 88.063,69.503 87.912,69.893 87.749 C 70.214 87.615,70.526 87.425,70.587 87.328 C 70.647 87.230,70.828 87.173,70.989 87.200 C 71.150 87.228,71.288 87.185,71.296 87.105 C 71.316 86.893,72.260 86.353,72.775 86.260 C 73.021 86.215,73.303 86.092,73.402 85.986 C 73.540 85.839,73.493 85.839,73.208 85.985 C 73.002 86.092,72.833 86.140,72.833 86.093 C 72.833 85.873,74.239 85.300,74.304 85.494 C 74.343 85.612,74.450 85.539,74.561 85.320 C 74.665 85.113,74.862 84.910,75.000 84.869 C 75.150 84.825,75.116 84.901,74.917 85.059 C 74.733 85.204,74.658 85.323,74.750 85.323 C 74.966 85.323,75.614 84.835,75.407 84.828 C 75.321 84.825,75.396 84.713,75.574 84.578 C 75.751 84.443,75.976 84.336,76.074 84.339 C 76.171 84.342,76.104 84.454,75.926 84.589 C 75.749 84.723,75.674 84.832,75.760 84.831 C 76.055 84.826,76.351 84.553,76.300 84.331 C 76.245 84.086,78.157 82.995,78.401 83.133 C 78.484 83.180,78.503 83.139,78.443 83.043 C 78.384 82.947,78.453 82.823,78.598 82.767 C 78.977 82.622,79.033 82.641,78.912 82.875 C 78.853 82.990,78.959 82.896,79.148 82.667 C 79.338 82.438,79.494 82.338,79.496 82.445 C 79.499 82.564,79.811 82.475,80.292 82.221 C 81.240 81.718,81.394 81.583,80.833 81.747 C 80.431 81.864,80.428 81.859,80.750 81.614 C 80.964 81.451,81.149 81.416,81.271 81.517 C 81.398 81.623,81.487 81.568,81.544 81.350 C 81.591 81.172,81.948 80.863,82.338 80.664 C 82.899 80.378,83.027 80.356,82.949 80.559 C 82.881 80.736,82.926 80.787,83.092 80.724 C 83.225 80.673,83.333 80.564,83.333 80.482 C 83.333 80.400,83.465 80.332,83.625 80.331 C 83.875 80.329,83.881 80.305,83.667 80.164 C 83.375 79.972,83.689 79.674,84.188 79.669 C 84.337 79.668,84.555 79.551,84.673 79.409 C 84.791 79.267,84.971 79.184,85.075 79.224 C 85.178 79.263,85.485 79.191,85.756 79.064 L 86.250 78.831 85.750 78.916 L 85.250 79.001 85.722 78.738 C 85.982 78.593,86.301 78.516,86.430 78.566 C 86.571 78.619,86.667 78.553,86.667 78.402 C 86.667 78.262,86.735 78.189,86.818 78.240 C 86.901 78.292,87.145 78.257,87.360 78.162 C 87.742 77.994,87.743 77.992,87.375 78.063 C 87.169 78.103,87.000 78.101,87.000 78.058 C 87.000 77.949,88.557 77.258,88.708 77.299 C 88.777 77.318,88.834 77.240,88.836 77.125 C 88.837 77.010,89.231 76.729,89.711 76.500 C 90.191 76.271,90.658 76.000,90.750 75.898 C 90.987 75.635,91.500 75.480,91.500 75.672 C 91.500 75.981,91.763 75.830,92.038 75.364 L 92.315 74.896 87.449 72.128 C 84.773 70.606,81.233 68.591,79.583 67.651 C 75.698 65.437,75.481 65.332,75.148 65.510 C 74.999 65.590,74.830 65.608,74.772 65.550 C 74.714 65.492,74.667 65.540,74.667 65.657 C 74.667 65.774,74.558 65.827,74.425 65.776 C 74.271 65.717,74.214 65.764,74.269 65.905 C 74.353 66.125,73.371 66.593,73.195 66.417 C 73.149 66.371,73.211 66.333,73.333 66.333 C 73.456 66.333,73.509 66.286,73.451 66.229 C 73.394 66.171,73.082 66.396,72.760 66.729 C 72.437 67.061,72.040 67.345,71.878 67.359 C 71.385 67.401,71.279 67.434,70.448 67.806 C 70.006 68.003,69.690 68.236,69.745 68.325 C 69.799 68.413,69.617 68.603,69.339 68.747 C 69.061 68.891,68.833 68.952,68.833 68.884 C 68.833 68.815,68.723 68.917,68.587 69.111 C 68.381 69.404,68.110 69.541,67.333 69.745 C 66.874 69.865,66.491 70.046,66.556 70.112 C 66.601 70.157,66.795 70.110,66.986 70.008 C 67.177 69.905,67.333 69.860,67.333 69.908 C 67.333 69.956,66.940 70.186,66.458 70.421 C 65.716 70.783,65.643 70.796,65.977 70.507 C 66.403 70.138,66.336 70.065,65.822 70.339 C 65.645 70.434,65.500 70.620,65.500 70.753 C 65.500 71.033,63.938 71.876,63.744 71.701 C 63.672 71.636,63.662 71.669,63.722 71.774 C 63.782 71.879,63.713 72.010,63.569 72.066 C 63.188 72.212,63.132 72.192,63.267 71.958 C 63.337 71.837,63.323 71.808,63.235 71.889 C 63.152 71.965,63.083 72.105,63.083 72.198 C 63.083 72.292,62.849 72.492,62.564 72.643 C 62.278 72.793,61.734 73.087,61.355 73.295 C 60.884 73.554,60.666 73.606,60.664 73.462 C 60.663 73.345,60.569 73.432,60.456 73.654 C 60.343 73.875,60.154 74.076,60.038 74.099 C 59.921 74.123,59.902 74.104,59.996 74.057 C 60.090 74.010,60.167 73.903,60.167 73.818 C 60.167 73.733,60.022 73.754,59.844 73.865 C 59.667 73.976,59.549 74.112,59.583 74.167 C 59.617 74.222,59.500 74.357,59.323 74.468 C 59.128 74.590,59.000 74.603,59.000 74.501 C 59.000 74.409,59.087 74.333,59.194 74.333 C 59.301 74.333,59.350 74.294,59.302 74.246 C 59.140 74.085,58.647 74.374,58.727 74.583 C 58.812 74.805,56.330 76.296,55.395 76.584 C 55.096 76.676,54.688 76.927,54.489 77.140 C 54.267 77.378,54.006 77.497,53.814 77.447 C 53.641 77.401,53.500 77.433,53.500 77.516 C 53.500 77.599,53.390 77.667,53.255 77.667 C 53.096 77.667,53.047 77.763,53.117 77.943 C 53.201 78.163,53.148 78.201,52.861 78.126 C 52.662 78.074,52.537 78.091,52.582 78.165 C 52.628 78.238,52.547 78.344,52.402 78.399 C 52.036 78.540,51.964 78.526,52.082 78.335 C 52.141 78.241,52.074 78.213,51.925 78.270 C 51.783 78.324,51.667 78.472,51.667 78.598 C 51.667 78.724,51.348 78.989,50.958 79.187 C 50.569 79.386,50.025 79.714,49.750 79.916 C 48.590 80.770,48.667 81.149,48.667 74.588 C 48.667 70.833,48.606 68.649,48.500 68.583 C 48.300 68.460,48.264 50.229,48.464 50.106 C 48.582 50.033,51.432 51.591,55.417 53.909 C 56.747 54.682,62.394 57.889,64.276 58.940 C 64.664 59.156,65.023 59.333,65.074 59.333 C 65.125 59.333,65.167 55.133,65.167 50.000 C 65.167 42.644,65.123 40.667,64.958 40.668 C 64.844 40.669,64.150 41.016,63.417 41.440 C 61.606 42.487,59.020 43.955,56.417 45.413 C 55.225 46.081,52.943 47.377,51.346 48.294 L 48.442 49.962 47.929 49.673 C 47.647 49.514,45.917 48.539,44.083 47.506 C 42.250 46.473,40.563 45.501,40.333 45.347 C 40.104 45.192,39.654 44.933,39.333 44.771 C 39.012 44.609,38.600 44.387,38.417 44.279 C 38.233 44.171,36.771 43.339,35.167 42.430 C 33.563 41.521,32.132 40.677,31.987 40.555 C 31.698 40.312,31.449 40.273,31.278 40.444 M64.250 60.089 C 63.831 60.291,63.818 60.314,64.167 60.230 C 64.396 60.174,64.655 60.063,64.742 59.981 C 64.958 59.779,64.839 59.805,64.250 60.089 M62.760 60.922 C 62.348 61.233,62.619 61.230,63.167 60.917 C 63.408 60.779,63.478 60.678,63.333 60.678 C 63.196 60.678,62.938 60.787,62.760 60.922 M58.833 63.097 C 58.574 63.241,58.515 63.329,58.676 63.331 C 58.819 63.332,59.082 63.223,59.260 63.089 C 59.664 62.783,59.390 62.788,58.833 63.097 M22.542 63.931 C 22.244 64.061,22.000 64.206,22.000 64.253 C 22.000 64.340,23.169 63.886,23.311 63.745 C 23.453 63.603,23.092 63.690,22.542 63.931 M57.750 63.786 C 57.309 63.892,57.021 64.167,57.351 64.167 C 57.490 64.167,57.749 64.057,57.926 63.922 C 58.104 63.787,58.212 63.684,58.167 63.691 C 58.121 63.699,57.933 63.741,57.750 63.786 M70.500 68.167 C 70.362 68.256,70.137 68.328,70.000 68.328 C 69.778 68.328,69.778 68.310,70.000 68.167 C 70.137 68.078,70.362 68.005,70.500 68.005 C 70.722 68.005,70.722 68.023,70.500 68.167 M49.000 74.583 C 49.000 77.685,49.041 80.181,49.092 80.130 C 49.204 80.018,49.191 69.135,49.079 69.023 C 49.036 68.980,49.000 71.482,49.000 74.583 M61.093 73.089 C 60.677 73.403,60.831 73.401,61.439 73.084 C 61.702 72.947,61.804 72.837,61.667 72.840 C 61.529 72.842,61.271 72.954,61.093 73.089 M30.832 79.023 C 30.624 79.169,30.631 79.183,30.875 79.104 C 31.148 79.016,31.169 79.367,31.206 84.714 L 31.245 90.417 31.292 84.761 C 31.338 79.123,31.303 78.690,30.832 79.023 M55.810 96.010 L 55.417 96.353 55.917 96.060 C 56.575 95.675,56.585 95.667,56.380 95.667 C 56.283 95.667,56.027 95.821,55.810 96.010 " stroke="none" fill="#04b93c" fill-rule="evenodd"></path><path id="path1" d="M75.394 15.749 C 75.341 15.886,75.234 15.959,75.156 15.910 C 75.078 15.862,74.594 16.069,74.080 16.370 C 72.336 17.391,70.919 18.174,70.292 18.462 C 69.948 18.621,69.699 18.835,69.738 18.939 C 69.778 19.046,69.565 19.167,69.242 19.219 C 68.931 19.270,68.355 19.525,67.963 19.788 C 67.571 20.050,67.063 20.356,66.833 20.468 C 66.604 20.580,66.079 20.882,65.667 21.139 L 64.917 21.605 64.877 31.044 C 64.852 36.996,64.896 40.519,64.998 40.582 C 65.161 40.683,67.170 39.582,67.708 39.096 C 67.869 38.952,68.112 38.833,68.250 38.833 C 68.387 38.833,68.500 38.770,68.500 38.693 C 68.500 38.616,68.800 38.463,69.167 38.353 C 69.533 38.243,69.833 38.085,69.833 38.001 C 69.833 37.917,70.187 37.693,70.619 37.501 C 71.051 37.310,71.445 37.095,71.494 37.024 C 71.543 36.952,71.958 36.715,72.417 36.496 C 73.205 36.120,73.395 36.000,73.882 35.570 C 73.995 35.471,74.292 35.338,74.543 35.275 C 74.794 35.212,75.000 35.087,75.000 34.997 C 75.000 34.907,75.112 34.833,75.250 34.833 C 75.470 34.833,75.500 36.636,75.503 50.042 L 75.507 65.250 78.035 66.667 C 79.426 67.446,80.905 68.279,81.323 68.518 C 81.741 68.757,82.458 69.161,82.917 69.415 C 83.375 69.670,83.825 69.933,83.917 70.000 C 84.008 70.067,84.533 70.370,85.083 70.672 C 86.591 71.500,87.194 71.840,89.917 73.391 L 92.417 74.815 92.459 49.967 C 92.492 30.249,92.458 25.067,92.292 24.866 C 92.177 24.727,91.729 24.449,91.295 24.248 C 90.861 24.047,90.546 23.842,90.595 23.794 C 90.675 23.713,90.354 23.567,89.417 23.257 C 89.072 23.143,89.821 23.608,91.152 24.333 C 92.229 24.920,91.991 25.362,90.114 26.258 C 89.822 26.398,89.283 26.696,88.917 26.921 C 88.550 27.147,87.987 27.464,87.667 27.627 C 87.346 27.789,86.896 28.043,86.667 28.190 C 86.081 28.565,80.265 31.870,79.250 32.404 C 78.635 32.727,77.610 33.321,76.833 33.803 C 75.770 34.463,75.833 35.023,75.833 24.905 L 75.833 15.644 76.292 15.962 C 76.965 16.428,77.446 16.586,77.166 16.250 C 77.049 16.108,76.919 16.025,76.879 16.065 C 76.839 16.106,76.662 15.995,76.486 15.819 C 76.105 15.438,75.527 15.401,75.394 15.749 M77.667 16.633 C 77.667 16.712,77.873 16.880,78.125 17.006 C 78.840 17.363,78.943 17.380,78.583 17.083 C 78.089 16.677,77.667 16.469,77.667 16.633 M79.379 17.667 C 79.612 17.850,79.848 18.000,79.905 18.000 C 79.961 18.000,80.312 18.193,80.686 18.429 C 81.059 18.664,81.408 18.814,81.460 18.762 C 81.581 18.641,81.619 18.668,80.306 17.945 C 79.069 17.263,78.741 17.165,79.379 17.667 M82.000 19.167 C 82.229 19.346,82.529 19.494,82.667 19.496 C 82.804 19.497,82.671 19.349,82.371 19.166 C 81.675 18.742,81.457 18.742,82.000 19.167 M83.500 19.995 C 83.955 20.345,84.556 20.559,84.407 20.318 C 84.356 20.235,84.203 20.167,84.068 20.167 C 83.933 20.167,83.780 20.054,83.727 19.917 C 83.674 19.779,83.508 19.668,83.357 19.670 C 83.151 19.673,83.187 19.753,83.500 19.995 M85.000 20.781 C 85.000 20.866,85.300 21.068,85.667 21.230 C 86.033 21.392,86.333 21.585,86.333 21.659 C 86.333 21.734,86.483 21.834,86.667 21.882 C 86.850 21.930,87.000 21.901,87.000 21.818 C 87.000 21.735,86.935 21.667,86.857 21.667 C 86.778 21.667,86.440 21.481,86.107 21.255 C 85.773 21.029,85.500 20.888,85.500 20.942 C 85.500 20.996,85.388 20.947,85.250 20.833 C 85.112 20.719,85.000 20.696,85.000 20.781 M87.336 22.122 C 87.339 22.314,89.000 23.193,89.000 23.003 C 89.000 22.913,88.625 22.649,88.167 22.417 C 87.708 22.184,87.334 22.052,87.336 22.122 M47.505 31.431 C 47.187 31.569,46.812 31.782,46.672 31.904 C 46.531 32.027,45.817 32.441,45.083 32.825 C 44.350 33.208,43.581 33.667,43.375 33.843 C 43.169 34.020,43.000 34.129,43.000 34.085 C 43.000 33.972,41.683 34.672,41.579 34.840 C 41.469 35.018,39.624 35.911,39.458 35.867 C 39.390 35.848,39.333 35.899,39.333 35.980 C 39.333 36.060,39.099 36.223,38.812 36.342 C 38.525 36.461,38.124 36.724,37.922 36.927 C 37.719 37.129,37.322 37.346,37.038 37.408 C 36.755 37.471,36.432 37.632,36.320 37.766 C 36.208 37.901,35.772 38.185,35.350 38.398 C 33.758 39.203,32.572 39.855,32.250 40.103 L 31.917 40.360 32.250 40.608 C 32.749 40.980,48.085 49.667,48.243 49.667 C 48.293 49.667,48.333 45.504,48.333 40.417 C 48.333 35.329,48.277 31.170,48.208 31.173 C 48.140 31.177,47.823 31.293,47.505 31.431 M18.583 66.787 C 17.392 67.480,16.154 68.192,15.833 68.369 C 8.665 72.325,4.500 74.758,4.500 74.991 C 4.500 75.105,5.453 75.548,6.127 75.746 C 6.335 75.807,6.467 75.919,6.420 75.995 C 6.343 76.119,6.552 76.263,6.877 76.309 C 7.176 76.351,8.094 76.897,8.217 77.106 C 8.290 77.231,8.470 77.333,8.618 77.333 C 8.765 77.333,9.127 77.518,9.422 77.743 C 9.717 77.968,10.006 78.105,10.063 78.048 C 10.120 77.991,10.167 78.022,10.167 78.116 C 10.167 78.211,10.505 78.417,10.918 78.575 C 11.331 78.733,11.626 78.930,11.575 79.014 C 11.523 79.098,11.560 79.176,11.657 79.188 C 12.243 79.257,13.467 79.839,13.565 80.096 C 13.615 80.227,13.813 80.333,14.005 80.333 C 14.196 80.333,14.307 80.408,14.250 80.500 C 14.193 80.592,14.301 80.667,14.490 80.667 C 14.679 80.667,14.977 80.810,15.153 80.986 C 15.328 81.162,15.516 81.262,15.569 81.208 C 15.623 81.155,15.667 81.199,15.667 81.306 C 15.667 81.412,15.723 81.492,15.792 81.482 C 16.033 81.447,16.667 81.707,16.667 81.841 C 16.667 81.964,18.343 82.833,18.580 82.833 C 18.636 82.833,18.875 83.013,19.113 83.234 C 19.350 83.454,19.765 83.678,20.033 83.732 C 20.302 83.785,20.480 83.898,20.427 83.982 C 20.375 84.067,20.483 84.096,20.666 84.048 C 21.011 83.958,21.219 65.477,20.875 65.513 C 20.806 65.521,19.775 66.094,18.583 66.787 " stroke="none" fill="#04228d" fill-rule="evenodd"></path><path id="path2" d="M4.333 49.813 C 4.333 63.782,4.397 74.833,4.478 74.833 C 4.557 74.833,4.801 74.697,5.019 74.530 C 5.238 74.363,7.204 73.220,9.388 71.988 C 14.575 69.065,15.140 68.748,15.833 68.367 C 16.154 68.191,17.416 67.474,18.637 66.773 C 19.857 66.073,20.889 65.500,20.928 65.500 C 20.968 65.500,21.000 69.662,21.000 74.750 C 21.000 81.186,20.946 84.000,20.822 84.000 C 20.725 84.000,20.481 83.920,20.281 83.822 C 19.970 83.670,19.978 83.694,20.333 83.985 C 20.762 84.335,21.500 84.456,21.500 84.176 C 21.500 84.089,21.950 83.817,22.500 83.570 C 23.050 83.323,23.500 83.068,23.500 83.003 C 23.500 82.937,23.781 82.762,24.125 82.612 C 24.469 82.463,25.313 82.004,26.000 81.592 C 26.688 81.180,27.560 80.697,27.940 80.519 C 28.319 80.340,28.657 80.132,28.690 80.056 C 28.723 79.979,29.266 79.654,29.896 79.333 C 30.526 79.012,31.257 78.620,31.521 78.461 L 32.000 78.172 32.000 68.669 C 32.000 62.203,31.945 59.167,31.827 59.167 C 31.632 59.167,30.296 59.822,30.167 59.981 C 30.121 60.037,29.746 60.256,29.333 60.467 C 27.734 61.286,26.768 61.836,26.678 61.979 C 26.626 62.062,26.286 62.253,25.923 62.404 C 25.559 62.556,25.222 62.742,25.173 62.818 C 25.123 62.895,24.633 63.190,24.083 63.474 C 23.533 63.758,22.858 64.117,22.583 64.271 C 21.921 64.641,21.524 64.833,21.419 64.833 C 21.372 64.833,21.333 58.021,21.333 49.695 L 21.333 34.556 18.292 32.820 C 16.619 31.865,15.100 31.000,14.917 30.898 C 12.598 29.612,4.699 25.095,4.542 24.965 C 4.375 24.827,4.333 29.816,4.333 49.813 M48.440 50.116 C 48.254 50.301,48.316 68.469,48.502 68.585 C 48.682 68.696,48.992 68.555,50.613 67.623 C 51.179 67.298,51.686 67.075,51.738 67.127 C 51.790 67.179,51.833 67.152,51.833 67.066 C 51.833 66.980,52.190 66.724,52.625 66.497 C 53.060 66.269,53.462 66.022,53.517 65.947 C 53.572 65.872,53.985 65.625,54.434 65.398 C 54.883 65.171,55.625 64.772,56.083 64.511 C 56.542 64.251,57.238 63.871,57.631 63.668 C 58.023 63.464,58.438 63.212,58.552 63.107 C 58.665 63.002,59.132 62.731,59.588 62.504 C 60.044 62.277,60.456 62.038,60.503 61.973 C 60.551 61.908,60.926 61.694,61.337 61.498 C 62.505 60.941,63.423 60.418,63.921 60.026 C 64.173 59.829,64.481 59.667,64.606 59.667 C 65.003 59.667,64.851 59.217,64.374 58.979 C 63.851 58.719,57.680 55.226,55.417 53.909 C 54.298 53.259,50.050 50.846,48.648 50.066 C 48.592 50.035,48.499 50.057,48.440 50.116 " stroke="none" fill="#0474bb" fill-rule="evenodd"></path><path id="path3" d="M41.338 3.493 C 41.203 3.579,41.134 3.689,41.184 3.739 C 41.234 3.789,41.419 3.721,41.596 3.587 C 41.947 3.321,41.733 3.244,41.338 3.493 M55.238 3.587 C 55.414 3.721,55.600 3.789,55.650 3.739 C 55.754 3.635,55.331 3.337,55.083 3.341 C 54.992 3.343,55.061 3.453,55.238 3.587 M35.333 6.942 C 35.104 7.063,35.029 7.162,35.167 7.162 C 35.454 7.162,35.946 6.883,35.829 6.787 C 35.785 6.752,35.563 6.821,35.333 6.942 M61.000 6.822 C 61.000 6.891,61.188 7.032,61.417 7.136 C 61.646 7.241,61.833 7.272,61.832 7.205 C 61.831 7.138,61.644 6.997,61.415 6.891 C 61.187 6.785,61.000 6.754,61.000 6.822 M65.206 15.465 C 65.172 20.478,65.201 21.315,65.398 21.132 C 65.526 21.013,65.564 20.875,65.484 20.825 C 65.404 20.774,65.317 18.224,65.292 15.158 L 65.245 9.583 65.206 15.465 M42.333 22.677 C 42.333 22.774,42.240 22.800,42.125 22.735 C 41.965 22.645,41.962 22.667,42.110 22.828 C 42.217 22.943,42.386 22.987,42.485 22.926 C 42.713 22.785,42.723 22.500,42.500 22.500 C 42.408 22.500,42.333 22.579,42.333 22.677 M109.667 27.766 C 109.529 27.816,109.267 27.921,109.083 27.999 C 108.900 28.077,108.322 28.269,107.799 28.424 C 107.276 28.580,106.720 28.848,106.565 29.021 C 106.409 29.193,106.206 29.333,106.115 29.333 C 105.087 29.333,102.643 33.152,102.328 35.250 C 102.218 35.983,102.067 36.733,101.992 36.917 C 101.917 37.100,101.696 39.050,101.500 41.250 C 101.304 43.450,101.079 45.400,101.000 45.583 C 100.920 45.767,100.694 47.717,100.498 49.917 C 100.302 52.117,100.077 54.067,99.998 54.250 C 99.919 54.433,99.694 56.383,99.498 58.583 C 99.302 60.783,99.075 62.733,98.995 62.917 C 98.870 63.203,98.595 65.789,98.216 70.250 C 98.161 70.892,98.036 71.469,97.937 71.533 C 97.819 71.610,97.905 71.920,98.191 72.450 L 98.623 73.250 104.093 73.294 L 109.564 73.338 110.004 72.856 C 110.430 72.389,110.833 69.639,110.833 67.200 C 110.833 66.906,110.894 66.667,110.967 66.667 C 111.041 66.667,111.279 64.473,111.497 61.792 C 111.714 59.110,111.940 56.879,111.999 56.833 C 112.057 56.788,112.274 54.650,112.480 52.083 C 112.686 49.517,112.925 47.286,113.011 47.127 C 113.097 46.968,113.168 46.443,113.169 45.961 C 113.172 44.861,113.412 44.394,113.562 45.195 C 113.620 45.504,113.805 46.017,113.974 46.336 C 114.142 46.656,114.372 47.292,114.484 47.750 C 114.597 48.208,114.785 48.733,114.903 48.917 C 115.021 49.100,115.289 49.831,115.499 50.542 C 115.710 51.252,115.946 51.833,116.024 51.833 C 116.103 51.833,116.167 51.933,116.167 52.055 C 116.167 52.370,116.862 54.566,116.994 54.667 C 117.118 54.761,117.833 56.991,117.833 57.282 C 117.833 57.387,117.908 57.497,117.999 57.528 C 118.090 57.558,118.320 58.145,118.511 58.831 C 118.701 59.516,118.914 60.116,118.985 60.164 C 119.057 60.211,119.284 60.813,119.491 61.500 C 119.698 62.188,119.917 62.788,119.978 62.833 C 120.039 62.879,120.262 63.517,120.473 64.250 C 120.684 64.983,120.927 65.608,121.012 65.639 C 121.097 65.669,121.167 65.824,121.167 65.983 C 121.167 66.141,121.377 66.473,121.634 66.719 L 122.102 67.167 127.317 67.167 C 133.411 67.167,133.279 67.199,133.664 65.593 C 133.787 65.083,133.944 64.667,134.015 64.667 C 134.085 64.667,134.262 64.235,134.407 63.708 C 134.552 63.181,134.781 62.525,134.916 62.250 C 135.052 61.975,135.322 61.225,135.516 60.583 C 135.711 59.942,135.921 59.379,135.982 59.333 C 136.044 59.288,136.277 58.650,136.500 57.917 C 136.723 57.183,136.950 56.546,137.005 56.500 C 137.126 56.398,137.833 54.153,137.833 53.870 C 137.833 53.758,137.897 53.667,137.976 53.667 C 138.054 53.667,138.289 53.085,138.497 52.375 C 138.705 51.665,138.940 51.003,139.018 50.904 C 139.096 50.805,139.319 50.205,139.514 49.570 C 139.709 48.936,139.926 48.342,139.997 48.250 C 140.068 48.158,140.299 47.521,140.511 46.833 C 140.723 46.146,140.946 45.546,141.006 45.500 C 141.066 45.454,141.178 45.192,141.254 44.917 C 141.358 44.541,141.460 45.142,141.661 47.333 C 141.809 48.938,141.977 50.362,142.034 50.500 C 142.091 50.637,142.300 52.813,142.497 55.333 C 142.695 57.854,142.920 60.067,142.997 60.250 C 143.075 60.433,143.301 62.646,143.500 65.167 C 143.699 67.688,143.925 69.900,144.002 70.083 C 144.079 70.267,144.177 70.876,144.220 71.437 C 144.263 71.998,144.427 72.655,144.585 72.895 L 144.872 73.333 150.345 73.333 L 155.818 73.333 156.242 72.909 C 156.476 72.676,156.667 72.326,156.667 72.132 C 156.667 71.199,156.125 66.043,155.996 65.750 C 155.871 65.463,155.596 62.887,155.216 58.417 C 155.161 57.775,155.067 57.212,155.006 57.167 C 154.946 57.121,154.718 55.171,154.500 52.833 C 154.282 50.496,154.057 48.546,154.000 48.500 C 153.942 48.454,153.726 46.579,153.520 44.333 C 153.313 42.087,153.079 40.100,153.000 39.917 C 152.921 39.733,152.774 38.640,152.673 37.488 C 152.462 35.080,152.325 34.482,151.653 33.041 C 151.385 32.468,151.167 31.954,151.167 31.899 C 151.167 31.843,150.979 31.650,150.750 31.470 C 150.521 31.290,150.333 31.066,150.333 30.971 C 150.333 30.476,147.721 28.650,146.552 28.329 C 146.111 28.207,145.697 28.027,145.631 27.929 C 145.451 27.658,140.300 27.686,140.208 27.958 C 140.170 28.073,139.990 28.167,139.809 28.167 C 139.425 28.167,137.879 28.806,137.506 29.120 C 135.677 30.653,134.793 31.816,134.396 33.208 C 134.246 33.735,134.069 34.167,134.003 34.167 C 133.937 34.167,133.750 34.673,133.588 35.292 C 133.425 35.910,133.200 36.567,133.088 36.750 C 132.975 36.933,132.711 37.665,132.501 38.375 C 132.290 39.085,132.054 39.667,131.976 39.667 C 131.897 39.667,131.833 39.758,131.833 39.870 C 131.833 40.153,131.126 42.398,131.005 42.500 C 130.950 42.546,130.723 43.183,130.500 43.917 C 130.277 44.650,130.047 45.288,129.989 45.333 C 129.860 45.436,129.167 47.638,129.167 47.945 C 129.167 48.067,129.103 48.167,129.024 48.167 C 128.946 48.167,128.711 48.748,128.503 49.458 C 128.295 50.169,128.067 50.825,127.997 50.917 C 127.926 51.008,127.759 51.412,127.624 51.815 L 127.380 52.546 127.028 51.815 C 126.835 51.412,126.556 50.652,126.410 50.125 C 126.263 49.598,126.088 49.167,126.022 49.167 C 125.955 49.167,125.758 48.595,125.584 47.895 C 125.409 47.196,125.169 46.527,125.050 46.407 C 124.931 46.288,124.833 46.131,124.833 46.058 C 124.833 45.751,124.090 43.579,123.967 43.528 C 123.894 43.497,123.833 43.387,123.833 43.282 C 123.833 42.988,123.117 40.760,122.993 40.667 C 122.932 40.621,122.711 40.021,122.502 39.333 C 122.294 38.646,122.068 38.008,122.000 37.917 C 121.932 37.825,121.706 37.188,121.498 36.500 C 121.289 35.813,121.072 35.212,121.017 35.167 C 120.897 35.068,120.596 34.202,120.338 33.208 C 120.237 32.819,120.088 32.500,120.007 32.500 C 119.925 32.500,119.773 32.237,119.667 31.916 C 119.464 31.304,117.457 29.167,117.083 29.167 C 116.965 29.167,116.828 29.059,116.777 28.928 C 116.727 28.797,116.250 28.555,115.718 28.391 C 115.186 28.227,114.698 28.017,114.633 27.925 C 114.510 27.748,110.100 27.607,109.667 27.766 M29.832 29.752 C 29.664 29.954,29.675 30.000,29.886 30.000 C 30.198 30.000,30.401 29.728,30.188 29.597 C 30.105 29.546,29.945 29.615,29.832 29.752 M24.333 32.833 C 24.333 32.936,24.258 32.973,24.165 32.916 C 24.073 32.859,23.951 32.933,23.895 33.080 C 23.741 33.480,23.876 33.512,24.317 33.179 C 24.578 32.982,24.648 32.841,24.523 32.764 C 24.419 32.700,24.333 32.731,24.333 32.833 M74.503 35.457 C 74.241 35.560,73.749 36.000,73.897 36.000 C 74.119 36.000,74.833 35.598,74.833 35.473 C 74.833 35.396,74.815 35.339,74.792 35.346 C 74.769 35.354,74.639 35.403,74.503 35.457 M31.578 50.000 C 31.578 55.087,31.599 57.169,31.625 54.625 C 31.651 52.081,31.651 47.919,31.625 45.375 C 31.599 42.831,31.578 44.913,31.578 50.000 M65.244 50.083 C 65.244 55.125,65.266 57.212,65.292 54.720 C 65.317 52.229,65.317 48.104,65.292 45.553 C 65.266 43.003,65.244 45.042,65.244 50.083 M282.083 42.582 C 280.588 42.961,279.325 43.843,278.000 45.435 C 277.057 46.568,276.979 47.817,277.034 60.917 C 277.081 71.819,277.099 72.440,277.394 72.875 L 277.705 73.333 281.417 73.333 L 285.128 73.333 285.439 72.875 C 285.731 72.445,285.753 71.895,285.798 64.042 C 285.824 59.435,285.907 55.667,285.983 55.667 C 286.059 55.667,286.252 56.082,286.411 56.589 C 286.571 57.096,286.794 57.604,286.909 57.718 C 287.023 57.832,287.212 58.224,287.329 58.588 C 287.446 58.952,287.713 59.587,287.923 60.000 C 288.133 60.413,288.441 61.087,288.606 61.500 C 288.772 61.913,288.952 62.288,289.006 62.333 C 289.060 62.379,289.278 62.885,289.489 63.458 C 289.701 64.031,289.940 64.500,290.020 64.500 C 290.101 64.500,290.167 64.611,290.167 64.746 C 290.167 64.882,290.421 65.538,290.732 66.205 C 291.043 66.871,291.421 67.714,291.572 68.077 C 291.723 68.441,291.900 68.778,291.965 68.827 C 292.030 68.877,292.231 69.217,292.411 69.583 C 292.786 70.348,292.882 70.475,293.863 71.508 C 295.146 72.860,296.303 73.375,298.252 73.464 C 299.861 73.537,301.833 73.290,301.833 73.015 C 301.833 72.944,302.138 72.786,302.510 72.663 C 303.536 72.325,305.269 70.588,305.644 69.522 C 305.810 69.051,305.995 68.616,306.056 68.555 C 306.117 68.494,306.167 62.795,306.167 55.890 L 306.167 43.336 305.803 42.918 L 305.440 42.500 301.835 42.500 C 297.762 42.500,297.715 42.513,297.491 43.677 C 297.412 44.084,297.336 47.979,297.321 52.333 C 297.307 56.688,297.260 60.119,297.218 59.958 C 297.177 59.798,297.079 59.667,297.001 59.667 C 296.924 59.667,296.698 59.179,296.500 58.583 C 296.302 57.987,296.078 57.500,296.002 57.500 C 295.926 57.500,295.732 57.080,295.571 56.567 C 295.410 56.054,295.189 55.547,295.081 55.439 C 294.974 55.331,294.755 54.849,294.595 54.369 C 294.436 53.889,294.199 53.389,294.069 53.260 C 293.939 53.130,293.833 52.953,293.833 52.867 C 293.833 52.647,293.122 50.934,292.989 50.833 C 292.928 50.788,292.820 50.563,292.748 50.333 C 292.677 50.104,292.329 49.302,291.976 48.552 C 291.622 47.801,291.333 47.113,291.333 47.022 C 291.333 46.931,291.231 46.754,291.105 46.629 C 290.979 46.503,290.750 46.156,290.596 45.858 C 290.442 45.560,290.207 45.275,290.075 45.224 C 289.942 45.173,289.833 45.043,289.833 44.936 C 289.833 44.661,288.795 43.623,288.226 43.329 C 287.964 43.194,287.703 43.020,287.646 42.942 C 287.260 42.411,283.672 42.179,282.083 42.582 M165.000 42.688 C 164.313 42.767,163.725 42.908,163.695 43.000 C 163.664 43.091,163.556 43.167,163.455 43.167 C 162.066 43.167,159.645 45.821,159.387 47.627 C 159.209 48.873,159.209 67.127,159.387 68.373 C 159.645 70.179,162.066 72.833,163.455 72.833 C 163.556 72.833,163.664 72.906,163.694 72.994 C 163.819 73.356,167.163 73.497,175.604 73.499 C 185.307 73.500,185.439 73.492,185.719 72.851 C 186.014 72.180,186.199 72.149,186.507 72.723 L 186.789 73.250 190.963 73.294 L 195.136 73.339 195.498 72.753 C 195.697 72.430,195.916 72.167,195.984 72.167 C 196.052 72.167,196.276 71.829,196.482 71.417 C 196.688 71.004,196.915 70.667,196.985 70.667 C 197.056 70.667,197.288 70.329,197.500 69.917 C 197.712 69.504,197.936 69.167,197.997 69.167 C 198.058 69.167,198.276 68.829,198.482 68.417 C 198.688 68.004,198.925 67.667,199.008 67.667 C 199.092 67.667,199.309 67.374,199.492 67.015 C 199.675 66.657,199.883 66.338,199.954 66.307 C 200.114 66.237,200.654 65.354,200.780 64.958 C 200.831 64.798,200.937 64.667,201.016 64.667 C 201.095 64.667,201.308 64.376,201.490 64.021 C 201.923 63.170,202.255 63.056,202.623 63.630 C 202.782 63.879,203.005 64.181,203.119 64.299 C 203.232 64.418,203.448 64.775,203.598 65.091 C 203.748 65.408,203.930 65.667,204.002 65.667 C 204.074 65.667,204.292 65.971,204.486 66.343 C 204.680 66.716,205.025 67.221,205.253 67.467 C 205.480 67.712,205.667 67.983,205.667 68.068 C 205.667 68.153,205.779 68.341,205.916 68.486 C 206.299 68.892,207.667 70.983,207.667 71.162 C 207.667 71.250,207.817 71.402,208.000 71.500 C 208.183 71.598,208.333 71.775,208.333 71.892 C 208.333 72.010,208.579 72.382,208.879 72.720 L 209.425 73.333 213.402 73.333 L 217.378 73.333 217.805 72.875 C 218.240 72.408,218.397 71.429,218.075 71.197 C 217.882 71.059,217.556 70.547,217.337 70.042 C 217.248 69.835,217.112 69.667,217.035 69.667 C 216.958 69.667,216.726 69.367,216.520 69.000 C 216.314 68.633,216.093 68.333,216.030 68.333 C 215.967 68.333,215.822 68.127,215.710 67.875 C 215.597 67.623,215.279 67.154,215.003 66.833 C 214.727 66.512,214.501 66.166,214.500 66.064 C 214.500 65.962,214.331 65.700,214.124 65.481 C 213.917 65.262,213.373 64.521,212.915 63.833 C 212.458 63.146,211.990 62.523,211.875 62.450 C 211.760 62.377,211.667 62.226,211.667 62.115 C 211.667 62.004,211.480 61.712,211.253 61.467 C 211.025 61.221,210.680 60.716,210.486 60.343 C 210.292 59.971,210.067 59.667,209.987 59.667 C 209.906 59.667,209.687 59.367,209.500 59.000 C 209.313 58.633,209.086 58.333,208.997 58.333 C 208.907 58.333,208.833 58.183,208.833 58.000 C 208.833 57.817,208.900 57.667,208.981 57.667 C 209.062 57.667,209.245 57.421,209.388 57.121 C 209.530 56.821,209.840 56.352,210.076 56.079 C 210.312 55.806,210.597 55.377,210.710 55.125 C 210.822 54.873,210.970 54.667,211.037 54.667 C 211.105 54.667,211.313 54.367,211.500 54.000 C 211.687 53.633,211.905 53.333,211.984 53.333 C 212.063 53.333,212.169 53.202,212.220 53.042 C 212.345 52.648,212.851 51.844,213.208 51.471 C 213.369 51.304,213.500 51.092,213.500 51.000 C 213.500 50.908,213.631 50.696,213.792 50.529 C 214.149 50.156,214.655 49.352,214.780 48.958 C 214.831 48.798,214.937 48.667,215.016 48.667 C 215.095 48.667,215.313 48.367,215.500 48.000 C 215.687 47.633,215.906 47.333,215.987 47.333 C 216.067 47.333,216.292 47.029,216.485 46.657 C 216.679 46.286,216.975 45.834,217.144 45.653 C 217.731 45.022,217.896 44.058,217.536 43.363 L 217.218 42.750 213.049 42.706 L 208.880 42.661 208.025 43.956 C 207.554 44.667,207.075 45.362,206.959 45.500 C 206.844 45.637,206.600 46.046,206.417 46.409 C 206.233 46.771,205.915 47.251,205.708 47.475 C 205.502 47.699,205.333 47.980,205.333 48.099 C 205.333 48.219,205.234 48.377,205.112 48.450 C 204.990 48.523,204.709 48.921,204.487 49.333 C 204.265 49.746,203.991 50.181,203.879 50.299 C 203.767 50.418,203.552 50.775,203.402 51.091 C 203.252 51.408,203.066 51.667,202.989 51.667 C 202.912 51.667,202.727 51.923,202.578 52.237 C 202.308 52.806,201.667 52.689,201.667 52.071 C 201.667 51.967,201.498 51.696,201.292 51.468 C 201.085 51.240,200.769 50.760,200.589 50.402 C 200.409 50.043,200.166 49.637,200.049 49.500 C 199.655 49.038,198.333 46.998,198.333 46.852 C 198.333 46.773,198.226 46.618,198.094 46.509 C 197.963 46.400,197.699 46.012,197.509 45.646 C 197.318 45.280,197.013 44.821,196.831 44.626 C 196.649 44.430,196.500 44.191,196.500 44.094 C 196.500 43.996,196.249 43.635,195.943 43.292 L 195.387 42.667 191.402 42.670 C 187.063 42.673,186.996 42.687,186.612 43.726 C 186.484 44.069,186.808 45.333,187.023 45.333 C 187.098 45.333,187.313 45.633,187.500 46.000 C 187.687 46.367,187.896 46.667,187.965 46.667 C 188.034 46.667,188.275 47.004,188.500 47.417 C 188.725 47.829,188.956 48.167,189.012 48.167 C 189.068 48.167,189.288 48.504,189.500 48.917 C 189.712 49.329,189.944 49.667,190.015 49.667 C 190.085 49.667,190.312 50.004,190.518 50.417 C 190.724 50.829,190.942 51.167,191.003 51.167 C 191.064 51.167,191.288 51.504,191.500 51.917 C 191.712 52.329,191.941 52.667,192.009 52.667 C 192.077 52.667,192.292 52.971,192.485 53.343 C 192.679 53.714,192.987 54.179,193.169 54.374 C 193.351 54.570,193.500 54.806,193.500 54.901 C 193.500 54.995,193.651 55.224,193.836 55.411 C 195.049 56.637,195.670 58.079,195.208 58.600 C 194.714 59.158,194.167 59.978,194.167 60.160 C 194.167 60.255,194.093 60.333,194.003 60.333 C 193.914 60.333,193.687 60.633,193.500 61.000 C 193.313 61.367,193.094 61.667,193.013 61.667 C 192.933 61.667,192.708 61.971,192.514 62.343 C 192.320 62.716,191.975 63.221,191.747 63.467 C 191.520 63.712,191.333 64.004,191.333 64.115 C 191.333 64.226,191.240 64.377,191.125 64.450 C 191.010 64.523,190.542 65.146,190.085 65.833 C 189.627 66.521,189.083 67.262,188.876 67.481 C 188.669 67.700,188.500 67.962,188.500 68.064 C 188.499 68.166,188.281 68.506,188.014 68.818 C 187.746 69.131,187.428 69.581,187.306 69.818 C 187.183 70.056,186.958 70.344,186.805 70.459 C 186.652 70.573,186.478 70.888,186.419 71.157 C 186.317 71.618,185.833 71.734,185.833 71.297 C 185.833 71.025,185.096 69.500,184.964 69.500 C 184.897 69.500,184.681 69.125,184.484 68.667 C 184.287 68.208,184.069 67.833,184.000 67.833 C 183.930 67.833,183.778 67.590,183.661 67.292 C 183.543 66.994,183.183 66.506,182.860 66.208 L 182.273 65.667 175.136 65.667 L 168.000 65.667 168.000 63.750 L 168.000 61.833 174.546 61.833 C 181.433 61.833,181.833 61.792,181.833 61.074 C 181.833 60.942,181.908 60.833,182.000 60.833 C 182.105 60.833,182.167 59.778,182.167 58.000 C 182.167 56.222,182.105 55.167,182.000 55.167 C 181.908 55.167,181.833 55.057,181.833 54.923 C 181.833 54.308,181.267 54.251,174.542 54.199 L 168.000 54.149 168.000 52.241 L 168.000 50.333 175.136 50.333 L 182.273 50.333 182.860 49.792 C 183.183 49.494,183.543 49.006,183.661 48.708 C 183.778 48.410,183.930 48.167,184.000 48.167 C 184.069 48.167,184.287 47.792,184.484 47.333 C 184.681 46.875,184.897 46.500,184.964 46.500 C 185.101 46.500,185.833 44.970,185.833 44.685 C 185.833 44.583,185.908 44.500,186.000 44.500 C 186.092 44.500,186.167 44.313,186.167 44.083 C 186.167 43.854,186.108 43.667,186.037 43.667 C 185.965 43.667,185.826 43.453,185.727 43.192 C 185.597 42.848,185.399 42.688,185.003 42.609 C 184.201 42.449,166.463 42.519,165.000 42.688 M225.369 42.665 C 224.792 42.730,224.155 42.863,223.952 42.960 C 223.749 43.057,223.246 43.292,222.833 43.482 C 221.995 43.867,220.702 45.052,220.329 45.776 C 220.194 46.037,220.022 46.295,219.947 46.351 C 219.505 46.674,219.438 48.191,219.376 59.333 C 219.288 75.047,218.749 73.333,223.779 73.333 L 227.378 73.333 227.773 72.908 C 228.161 72.489,228.167 72.431,228.167 68.991 L 228.167 65.500 232.077 65.500 C 235.846 65.500,238.500 65.285,238.500 64.980 C 238.500 64.899,238.629 64.833,238.787 64.833 C 239.135 64.833,241.383 64.145,241.500 64.002 C 241.546 63.946,241.921 63.695,242.333 63.443 C 244.116 62.353,245.220 61.303,245.776 60.167 C 245.843 60.029,245.993 59.821,246.109 59.703 C 246.225 59.586,246.452 59.061,246.614 58.537 C 246.775 58.012,246.985 57.530,247.079 57.464 C 247.345 57.280,247.309 50.797,247.042 50.708 C 246.927 50.670,246.833 50.505,246.833 50.340 C 246.833 49.898,246.355 48.609,246.121 48.417 C 246.008 48.325,245.807 48.038,245.674 47.780 C 245.402 47.254,243.354 45.167,243.110 45.167 C 243.024 45.167,242.870 45.060,242.768 44.930 C 242.464 44.542,240.316 43.548,239.345 43.346 C 238.847 43.242,238.350 43.083,238.241 42.993 C 237.751 42.586,228.206 42.342,225.369 42.665 M254.425 42.691 C 253.787 42.772,253.225 42.897,253.175 42.968 C 253.124 43.039,252.749 43.205,252.340 43.337 C 251.394 43.642,249.711 45.269,249.154 46.417 L 248.750 47.250 248.750 58.000 L 248.750 68.750 249.154 69.583 C 249.711 70.731,251.394 72.358,252.340 72.663 C 252.749 72.795,253.122 72.958,253.170 73.025 C 253.503 73.491,273.359 73.764,274.633 73.320 C 275.449 73.036,275.787 71.131,275.096 70.706 C 274.987 70.639,274.744 70.283,274.556 69.917 C 273.847 68.529,273.100 67.248,272.969 67.194 C 272.894 67.164,272.831 67.051,272.828 66.944 C 272.825 66.837,272.625 66.525,272.384 66.250 L 271.945 65.750 264.639 65.703 L 257.333 65.657 257.333 63.745 L 257.333 61.833 263.842 61.833 C 272.231 61.833,271.494 62.206,271.498 57.969 C 271.501 53.878,272.108 54.167,263.510 54.167 L 257.333 54.167 257.333 52.255 L 257.333 50.343 264.639 50.297 L 271.945 50.250 272.384 49.750 C 272.625 49.475,272.825 49.156,272.828 49.042 C 272.831 48.927,272.896 48.833,272.972 48.833 C 273.048 48.833,273.285 48.458,273.500 48.000 C 273.715 47.542,273.937 47.167,273.993 47.167 C 274.050 47.167,274.277 46.757,274.498 46.255 C 274.718 45.754,274.987 45.310,275.095 45.269 C 275.803 44.997,275.440 42.961,274.633 42.680 C 273.999 42.459,256.161 42.468,254.425 42.691 M318.516 42.680 C 317.562 42.753,316.737 42.882,316.683 42.966 C 316.628 43.050,316.286 43.173,315.922 43.240 C 315.142 43.384,313.786 43.828,313.667 43.978 C 313.621 44.036,313.231 44.249,312.800 44.452 C 310.709 45.436,308.167 48.510,308.167 50.053 C 308.167 50.207,308.092 50.333,308.000 50.333 C 307.900 50.333,307.833 51.000,307.833 52.000 C 307.833 52.917,307.900 53.667,307.981 53.667 C 308.062 53.667,308.178 53.994,308.238 54.394 C 308.366 55.249,309.575 57.069,310.334 57.550 C 310.609 57.724,310.833 57.923,310.833 57.993 C 310.833 58.063,311.208 58.299,311.667 58.516 C 312.125 58.734,312.500 58.960,312.500 59.019 C 312.500 59.078,312.969 59.299,313.542 59.511 C 314.115 59.722,314.621 59.947,314.667 60.010 C 314.766 60.147,317.433 60.833,317.865 60.833 C 318.031 60.833,318.167 60.899,318.167 60.978 C 318.167 61.058,319.048 61.295,320.125 61.505 C 321.202 61.715,322.121 61.936,322.167 61.995 C 322.212 62.055,322.925 62.279,323.750 62.493 C 324.575 62.707,325.287 62.935,325.333 63.001 C 325.379 63.067,325.660 63.245,325.958 63.398 C 326.630 63.742,326.663 64.222,326.042 64.619 C 325.790 64.780,325.491 65.001,325.377 65.109 C 324.831 65.629,318.644 65.924,317.167 65.500 C 316.626 65.345,314.878 64.266,314.647 63.945 C 314.505 63.747,313.337 63.731,313.197 63.925 C 313.019 64.173,312.033 64.833,311.840 64.833 C 311.745 64.833,311.667 64.901,311.667 64.984 C 311.667 65.066,311.410 65.285,311.097 65.470 C 310.550 65.792,310.363 65.937,309.468 66.727 C 309.246 66.923,308.780 67.233,308.432 67.417 C 307.144 68.095,307.162 69.628,308.467 70.502 C 308.806 70.728,309.122 70.966,309.170 71.030 C 309.296 71.198,310.819 71.833,311.097 71.833 C 311.227 71.833,311.333 71.900,311.333 71.981 C 311.333 72.063,312.027 72.292,312.875 72.492 C 313.723 72.691,314.551 72.927,314.715 73.016 C 315.708 73.555,325.270 73.564,326.273 73.027 C 326.443 72.935,327.202 72.694,327.958 72.490 C 328.715 72.287,329.333 72.056,329.333 71.977 C 329.333 71.898,329.419 71.833,329.523 71.833 C 329.860 71.833,331.243 71.093,331.468 70.792 C 331.588 70.631,331.766 70.500,331.864 70.500 C 332.020 70.500,332.830 69.705,333.931 68.473 C 334.123 68.259,334.419 67.708,334.589 67.250 C 334.760 66.792,334.978 66.363,335.075 66.298 C 335.341 66.117,335.310 61.631,335.042 61.542 C 334.927 61.503,334.833 61.363,334.833 61.229 C 334.833 60.582,332.580 57.667,332.079 57.667 C 332.021 57.667,331.585 57.413,331.112 57.103 C 330.638 56.793,329.950 56.437,329.583 56.311 C 329.217 56.186,328.832 56.005,328.730 55.908 C 328.627 55.812,327.952 55.589,327.230 55.412 C 326.507 55.236,325.875 55.035,325.825 54.965 C 325.774 54.895,324.949 54.679,323.991 54.484 C 323.034 54.290,322.175 54.075,322.083 54.006 C 321.992 53.938,321.167 53.711,320.250 53.504 C 319.333 53.296,318.546 53.078,318.500 53.020 C 318.454 52.962,318.042 52.762,317.585 52.577 C 316.737 52.234,316.475 51.845,316.866 51.512 C 317.689 50.812,317.949 50.670,318.688 50.511 C 319.944 50.242,324.812 50.282,325.623 50.568 C 325.989 50.697,326.615 51.122,327.013 51.513 C 327.880 52.362,328.835 52.498,329.472 51.861 C 329.671 51.663,329.892 51.500,329.963 51.500 C 330.034 51.500,330.331 51.294,330.623 51.042 C 330.914 50.790,331.541 50.321,332.015 50.000 C 332.489 49.679,333.020 49.282,333.196 49.117 C 333.372 48.953,333.756 48.684,334.049 48.521 C 334.996 47.995,335.089 46.528,334.224 45.755 C 333.382 45.002,333.227 44.900,332.328 44.515 C 331.827 44.300,331.379 44.069,331.333 44.000 C 331.239 43.859,328.593 43.167,328.149 43.167 C 327.991 43.167,327.836 43.092,327.806 43.001 C 327.671 42.601,322.077 42.407,318.516 42.680 M343.000 42.688 C 342.313 42.767,341.725 42.908,341.695 43.000 C 341.664 43.091,341.556 43.167,341.455 43.167 C 340.649 43.167,339.083 44.403,338.125 45.796 C 337.273 47.035,337.250 47.351,337.250 58.000 C 337.250 68.649,337.273 68.965,338.125 70.204 C 339.083 71.597,340.649 72.833,341.455 72.833 C 341.556 72.833,341.664 72.906,341.694 72.994 C 341.819 73.356,345.163 73.497,353.604 73.499 C 363.414 73.500,363.467 73.497,363.727 72.808 C 363.826 72.547,363.965 72.333,364.037 72.333 C 364.108 72.333,364.167 72.146,364.167 71.917 C 364.167 71.688,364.092 71.500,364.000 71.500 C 363.908 71.500,363.833 71.417,363.833 71.315 C 363.833 71.030,363.101 69.500,362.964 69.500 C 362.897 69.500,362.681 69.125,362.484 68.667 C 362.287 68.208,362.069 67.833,362.000 67.833 C 361.930 67.833,361.778 67.590,361.661 67.292 C 361.543 66.994,361.183 66.506,360.860 66.208 L 360.273 65.667 353.136 65.667 L 346.000 65.667 346.000 63.750 L 346.000 61.833 352.546 61.833 C 359.433 61.833,359.833 61.792,359.833 61.074 C 359.833 60.942,359.908 60.833,360.000 60.833 C 360.105 60.833,360.167 59.778,360.167 58.000 C 360.167 56.222,360.105 55.167,360.000 55.167 C 359.908 55.167,359.833 55.057,359.833 54.923 C 359.833 54.308,359.267 54.251,352.542 54.199 L 346.000 54.149 346.000 52.241 L 346.000 50.333 353.136 50.333 L 360.273 50.333 360.860 49.792 C 361.183 49.494,361.543 49.006,361.661 48.708 C 361.778 48.410,361.930 48.167,362.000 48.167 C 362.069 48.167,362.287 47.792,362.484 47.333 C 362.681 46.875,362.897 46.500,362.964 46.500 C 363.101 46.500,363.833 44.970,363.833 44.685 C 363.833 44.583,363.908 44.500,364.000 44.500 C 364.092 44.500,364.167 44.313,364.167 44.083 C 364.167 43.854,364.108 43.667,364.037 43.667 C 363.965 43.667,363.826 43.453,363.727 43.192 C 363.597 42.848,363.399 42.688,363.003 42.609 C 362.201 42.449,344.463 42.519,343.000 42.688 M375.264 42.683 C 374.356 42.758,373.568 42.888,373.514 42.972 C 373.461 43.057,373.080 43.182,372.669 43.251 C 371.815 43.394,370.640 43.783,370.507 43.968 C 370.457 44.036,370.079 44.238,369.667 44.415 C 368.819 44.781,368.583 44.968,366.990 46.538 C 366.365 47.154,365.730 47.942,365.581 48.288 C 365.431 48.634,365.183 49.174,365.029 49.488 C 364.674 50.217,364.615 54.344,364.958 54.458 C 365.073 54.497,365.167 54.634,365.167 54.764 C 365.167 55.261,365.972 56.476,366.833 57.281 C 367.705 58.095,367.936 58.267,368.583 58.587 C 368.950 58.768,369.272 58.965,369.300 59.024 C 369.327 59.084,369.815 59.304,370.383 59.514 C 370.952 59.724,371.454 59.948,371.500 60.011 C 371.546 60.075,372.258 60.288,373.083 60.486 C 373.908 60.684,374.702 60.910,374.847 60.990 C 374.992 61.069,375.929 61.299,376.930 61.501 C 377.931 61.703,378.825 61.923,378.917 61.990 C 379.008 62.058,379.758 62.289,380.583 62.504 C 381.408 62.719,382.121 62.945,382.167 63.007 C 382.212 63.069,382.494 63.245,382.792 63.398 C 383.406 63.712,383.510 64.227,383.013 64.493 C 382.837 64.587,382.593 64.760,382.471 64.876 C 381.426 65.874,372.833 65.997,372.833 65.013 C 372.833 64.954,372.611 64.774,372.339 64.613 C 372.068 64.453,371.728 64.204,371.585 64.061 C 371.020 63.496,369.068 64.158,368.450 65.125 C 368.377 65.240,368.226 65.333,368.115 65.333 C 368.004 65.333,367.727 65.504,367.498 65.713 C 367.270 65.922,366.821 66.276,366.500 66.499 C 366.179 66.723,365.811 67.008,365.682 67.133 C 365.554 67.259,365.271 67.429,365.054 67.511 C 363.275 68.187,364.726 70.821,367.342 71.664 C 367.750 71.795,368.123 71.959,368.172 72.027 C 368.220 72.095,368.933 72.312,369.755 72.507 C 370.577 72.703,371.390 72.938,371.561 73.028 C 372.571 73.564,382.146 73.557,383.106 73.019 C 383.277 72.924,384.015 72.688,384.746 72.496 C 385.478 72.304,386.115 72.095,386.163 72.032 C 386.211 71.968,386.620 71.742,387.072 71.529 C 389.109 70.569,391.192 68.316,391.664 66.563 C 391.784 66.116,391.946 65.679,392.025 65.592 C 392.212 65.383,392.209 62.333,392.021 62.333 C 391.941 62.333,391.827 62.025,391.767 61.649 C 391.642 60.873,391.316 60.178,390.783 59.553 C 390.131 58.791,389.015 57.667,388.909 57.667 C 388.853 57.667,388.419 57.413,387.945 57.103 C 387.471 56.793,386.783 56.437,386.417 56.312 C 386.050 56.187,385.712 56.037,385.667 55.978 C 385.552 55.830,383.368 55.167,382.996 55.167 C 382.830 55.167,382.669 55.097,382.639 55.013 C 382.608 54.928,381.758 54.688,380.750 54.480 C 379.742 54.272,378.879 54.052,378.833 53.990 C 378.787 53.929,378.003 53.716,377.089 53.516 C 376.175 53.316,375.388 53.089,375.339 53.012 C 375.290 52.934,374.930 52.775,374.540 52.658 C 373.475 52.340,373.113 51.167,374.080 51.167 C 374.219 51.167,374.333 51.095,374.333 51.006 C 374.333 50.594,376.089 50.333,378.858 50.333 C 382.127 50.333,382.797 50.494,383.839 51.525 C 384.895 52.571,386.542 52.253,387.634 50.792 C 387.754 50.631,387.946 50.500,388.061 50.500 C 388.176 50.500,388.416 50.367,388.594 50.204 C 388.771 50.041,389.179 49.725,389.500 49.501 C 389.821 49.277,390.189 48.992,390.318 48.867 C 390.446 48.741,390.729 48.571,390.946 48.489 C 391.605 48.238,391.883 46.993,391.452 46.220 C 390.856 45.151,386.639 43.167,384.962 43.167 C 384.815 43.167,384.669 43.092,384.639 43.001 C 384.503 42.599,378.684 42.401,375.264 42.683 M236.740 50.671 C 238.283 51.442,238.858 52.892,238.497 55.099 C 238.408 55.640,238.335 56.091,238.334 56.100 C 238.334 56.110,238.103 56.359,237.820 56.654 C 236.990 57.523,236.271 57.688,232.864 57.790 L 229.811 57.881 229.322 58.370 C 229.053 58.639,228.832 58.909,228.830 58.971 C 228.828 59.033,228.679 59.271,228.500 59.500 C 228.174 59.916,228.174 59.912,228.170 55.112 L 228.167 50.307 232.208 50.367 C 235.338 50.412,236.361 50.481,236.740 50.671 M56.000 64.667 C 56.000 64.758,56.112 64.833,56.250 64.833 C 56.387 64.833,56.500 64.758,56.500 64.667 C 56.500 64.575,56.387 64.500,56.250 64.500 C 56.112 64.500,56.000 64.575,56.000 64.667 M72.639 66.457 C 72.360 66.519,72.066 67.000,72.307 67.000 C 72.501 67.000,73.096 66.537,73.000 66.461 C 72.954 66.425,72.792 66.423,72.639 66.457 M31.237 78.927 C 31.460 79.091,31.502 79.878,31.542 84.683 L 31.588 90.250 31.627 84.494 C 31.666 78.774,31.665 78.738,31.322 78.738 C 31.024 78.738,31.013 78.764,31.237 78.927 M61.292 92.732 C 60.868 93.053,60.934 93.166,61.415 92.943 C 61.644 92.837,61.831 92.694,61.832 92.625 C 61.834 92.440,61.621 92.482,61.292 92.732 M41.272 96.246 C 41.325 96.386,41.473 96.500,41.601 96.500 C 41.927 96.500,41.890 96.375,41.504 96.169 C 41.235 96.025,41.192 96.039,41.272 96.246 M55.240 96.245 C 54.966 96.452,54.958 96.490,55.191 96.495 C 55.341 96.498,55.508 96.388,55.560 96.250 C 55.679 95.939,55.645 95.939,55.240 96.245 " stroke="none" fill="#040404" fill-rule="evenodd"></path><path id="path4" d="M75.833 24.905 C 75.833 35.023,75.770 34.463,76.833 33.803 C 77.610 33.321,78.635 32.727,79.250 32.404 C 80.265 31.870,86.081 28.565,86.667 28.190 C 86.896 28.043,87.346 27.789,87.667 27.627 C 87.987 27.464,88.550 27.148,88.917 26.924 C 89.283 26.700,89.771 26.423,90.000 26.310 C 91.734 25.451,92.192 24.987,91.668 24.620 C 91.485 24.491,91.366 24.356,91.404 24.318 C 91.441 24.281,91.294 24.239,91.077 24.226 C 90.626 24.200,89.787 23.602,89.959 23.430 C 90.022 23.367,89.932 23.370,89.759 23.436 C 89.524 23.526,89.479 23.501,89.582 23.336 C 89.673 23.189,89.654 23.155,89.526 23.234 C 89.420 23.300,88.725 23.011,87.982 22.593 C 87.239 22.175,86.556 21.833,86.464 21.833 C 86.373 21.833,86.339 21.725,86.390 21.592 C 86.455 21.422,86.403 21.381,86.214 21.453 C 86.033 21.523,85.985 21.492,86.068 21.358 C 86.136 21.248,86.130 21.169,86.054 21.182 C 85.692 21.245,85.334 21.143,85.101 20.911 C 84.960 20.770,84.580 20.544,84.256 20.408 C 83.932 20.273,83.667 20.121,83.667 20.071 C 83.667 20.021,83.753 20.034,83.859 20.099 C 83.976 20.171,84.006 20.145,83.937 20.033 C 83.874 19.931,83.720 19.887,83.595 19.935 C 83.470 19.983,83.317 19.941,83.255 19.842 C 83.194 19.743,83.061 19.712,82.960 19.775 C 82.847 19.845,82.813 19.794,82.872 19.641 C 82.938 19.468,82.859 19.397,82.608 19.405 C 82.411 19.412,82.262 19.342,82.278 19.250 C 82.293 19.158,82.141 19.074,81.939 19.062 C 81.514 19.036,80.231 18.203,80.290 17.990 C 80.311 17.910,80.215 17.889,80.075 17.943 C 79.935 17.997,79.692 17.926,79.535 17.787 C 79.378 17.648,78.894 17.368,78.458 17.165 C 78.023 16.963,77.667 16.730,77.667 16.648 C 77.667 16.567,77.550 16.500,77.407 16.500 C 77.264 16.500,77.193 16.426,77.249 16.335 C 77.307 16.242,77.242 16.212,77.098 16.267 C 76.959 16.321,76.618 16.202,76.339 16.004 L 75.833 15.644 75.833 24.905 M48.411 40.500 C 48.411 45.587,48.432 47.669,48.458 45.125 C 48.484 42.581,48.484 38.419,48.458 35.875 C 48.432 33.331,48.411 35.412,48.411 40.500 " stroke="none" fill="#04044c" fill-rule="evenodd"></path><path id="path5" d="M64.625 28.125 C 64.649 31.402,64.688 35.546,64.712 37.333 C 64.737 39.121,64.775 36.440,64.795 31.375 C 64.816 26.310,64.777 22.167,64.708 22.167 C 64.640 22.167,64.602 24.848,64.625 28.125 M63.734 23.083 C 63.468 23.312,63.170 23.500,63.073 23.500 C 62.976 23.500,62.751 23.631,62.573 23.792 C 62.395 23.952,61.856 24.265,61.375 24.487 C 60.894 24.709,60.500 24.942,60.500 25.005 C 60.500 25.176,58.660 25.849,58.486 25.742 C 58.404 25.691,58.375 25.747,58.420 25.866 C 58.471 25.999,58.195 26.246,57.712 26.500 C 57.277 26.729,56.789 27.048,56.627 27.208 C 56.466 27.369,56.221 27.500,56.083 27.500 C 55.946 27.500,55.700 27.634,55.536 27.797 C 55.372 27.961,54.829 28.270,54.328 28.485 C 53.827 28.700,53.379 28.922,53.333 28.979 C 53.288 29.037,52.875 29.267,52.417 29.491 C 51.959 29.715,51.472 30.023,51.334 30.176 C 51.196 30.329,50.824 30.555,50.507 30.678 C 50.190 30.802,49.796 31.037,49.632 31.201 C 49.468 31.366,49.221 31.500,49.083 31.500 C 48.864 31.500,48.833 32.593,48.833 40.333 C 48.833 48.368,48.898 49.773,49.230 48.909 C 49.284 48.768,49.592 48.541,49.914 48.407 C 50.236 48.272,50.500 48.098,50.500 48.020 C 50.500 47.942,50.856 47.747,51.292 47.586 C 51.727 47.424,52.159 47.199,52.252 47.085 C 52.436 46.859,53.873 46.167,54.158 46.167 C 54.254 46.167,54.333 46.089,54.333 45.994 C 54.333 45.899,54.671 45.677,55.083 45.500 C 55.496 45.323,55.833 45.110,55.833 45.026 C 55.833 44.943,56.208 44.713,56.667 44.516 C 57.125 44.319,57.500 44.094,57.500 44.016 C 57.500 43.938,57.950 43.706,58.500 43.500 C 59.050 43.294,59.500 43.078,59.500 43.019 C 59.500 42.960,59.894 42.727,60.375 42.501 C 60.856 42.275,61.389 41.963,61.559 41.808 C 61.729 41.653,62.085 41.436,62.351 41.326 C 62.616 41.216,62.833 41.077,62.833 41.017 C 62.833 40.957,63.170 40.760,63.582 40.579 L 64.330 40.250 64.332 31.458 C 64.333 26.623,64.307 22.667,64.276 22.667 C 64.244 22.667,64.001 22.854,63.734 23.083 M48.578 40.333 C 48.578 45.329,48.599 47.373,48.625 44.875 C 48.651 42.377,48.651 38.290,48.625 35.792 C 48.599 33.294,48.578 35.337,48.578 40.333 " stroke="none" fill="#041b24" fill-rule="evenodd"></path><path id="path6" d="M63.708 22.429 C 63.135 22.754,62.667 23.058,62.667 23.105 C 62.667 23.197,64.478 22.211,64.742 21.975 C 65.035 21.713,64.755 21.835,63.708 22.429 M61.792 23.511 C 61.448 23.693,61.167 23.879,61.167 23.924 C 61.167 23.970,61.467 23.854,61.833 23.667 C 62.200 23.480,62.500 23.291,62.500 23.247 C 62.500 23.138,62.499 23.138,61.792 23.511 M60.458 24.262 C 59.835 24.600,59.873 24.741,60.500 24.417 C 60.775 24.274,61.000 24.123,61.000 24.079 C 61.000 23.972,60.982 23.978,60.458 24.262 M58.125 25.595 C 57.502 25.933,57.540 26.074,58.167 25.750 C 58.442 25.608,58.667 25.456,58.667 25.412 C 58.667 25.305,58.649 25.311,58.125 25.595 M56.583 26.500 C 56.308 26.682,56.169 26.832,56.273 26.832 C 56.455 26.833,57.338 26.182,57.167 26.173 C 57.121 26.171,56.858 26.318,56.583 26.500 M54.790 27.482 C 53.679 28.134,53.585 28.290,54.613 27.773 C 55.088 27.535,55.524 27.263,55.581 27.170 C 55.724 26.940,55.697 26.950,54.790 27.482 M52.083 29.024 C 51.258 29.490,50.508 29.949,50.417 30.044 C 50.325 30.139,50.700 29.968,51.250 29.665 C 52.982 28.709,53.667 28.304,53.667 28.234 C 53.667 28.129,53.670 28.127,52.083 29.024 M74.375 35.284 C 74.169 35.324,74.000 35.419,74.000 35.496 C 74.000 35.668,74.638 35.515,74.762 35.313 C 74.812 35.233,74.830 35.177,74.802 35.189 C 74.773 35.202,74.581 35.245,74.375 35.284 M34.333 41.908 C 34.333 41.954,34.558 42.108,34.833 42.250 C 35.108 42.392,35.333 42.471,35.333 42.425 C 35.333 42.379,35.108 42.226,34.833 42.083 C 34.558 41.941,34.333 41.862,34.333 41.908 M61.458 42.400 C 60.230 43.098,60.000 43.334,61.083 42.783 C 61.852 42.393,62.696 41.836,62.500 41.849 C 62.454 41.853,61.985 42.100,61.458 42.400 M58.206 44.238 C 57.049 44.956,56.859 45.187,57.917 44.587 C 58.981 43.984,59.451 43.663,59.245 43.680 C 59.156 43.687,58.688 43.938,58.206 44.238 M56.290 45.319 C 55.624 45.746,55.501 45.919,56.083 45.611 C 56.782 45.240,57.113 45.003,56.917 45.015 C 56.825 45.020,56.543 45.157,56.290 45.319 M40.167 45.241 C 40.167 45.287,40.392 45.441,40.667 45.583 C 40.942 45.726,41.167 45.804,41.167 45.759 C 41.167 45.713,40.942 45.559,40.667 45.417 C 40.392 45.274,40.167 45.196,40.167 45.241 M49.548 49.168 C 49.070 49.442,48.559 49.667,48.413 49.667 C 48.267 49.667,48.195 49.744,48.253 49.838 C 48.347 49.990,49.936 49.231,50.408 48.808 C 50.696 48.551,50.428 48.663,49.548 49.168 M46.667 48.890 C 46.667 49.002,47.864 49.691,47.936 49.620 C 47.969 49.586,47.697 49.391,47.331 49.186 C 46.966 48.980,46.667 48.847,46.667 48.890 M77.167 66.241 C 77.167 66.287,77.392 66.441,77.667 66.583 C 77.942 66.726,78.167 66.804,78.167 66.759 C 78.167 66.713,77.942 66.559,77.667 66.417 C 77.392 66.274,77.167 66.196,77.167 66.241 M78.333 66.908 C 78.333 66.954,78.558 67.108,78.833 67.250 C 79.108 67.392,79.333 67.471,79.333 67.425 C 79.333 67.379,79.108 67.226,78.833 67.083 C 78.558 66.941,78.333 66.862,78.333 66.908 M79.500 67.575 C 79.500 67.621,79.725 67.774,80.000 67.917 C 80.275 68.059,80.500 68.138,80.500 68.092 C 80.500 68.046,80.275 67.892,80.000 67.750 C 79.725 67.608,79.500 67.529,79.500 67.575 M86.667 71.675 C 87.101 71.971,87.833 72.345,87.833 72.271 C 87.833 72.178,86.683 71.499,86.532 71.503 C 86.469 71.504,86.529 71.582,86.667 71.675 M88.000 72.410 C 88.000 72.456,88.300 72.646,88.667 72.833 C 89.033 73.020,89.333 73.136,89.333 73.090 C 89.333 73.044,89.033 72.854,88.667 72.667 C 88.300 72.480,88.000 72.364,88.000 72.410 M90.667 73.908 C 90.667 73.954,90.892 74.108,91.167 74.250 C 91.442 74.392,91.667 74.471,91.667 74.425 C 91.667 74.379,91.442 74.226,91.167 74.083 C 90.892 73.941,90.667 73.862,90.667 73.908 " stroke="none" fill="#045938" fill-rule="evenodd"></path><path id="path7" d="M64.167 22.456 C 64.029 22.509,63.631 22.732,63.281 22.952 C 62.931 23.171,62.406 23.486,62.114 23.650 C 60.837 24.369,58.380 25.766,57.986 25.997 C 57.750 26.136,56.752 26.700,55.769 27.250 C 54.786 27.800,53.705 28.410,53.366 28.605 C 52.664 29.009,50.223 30.388,49.295 30.904 L 48.674 31.250 48.629 40.377 C 48.590 48.180,48.617 49.491,48.819 49.413 C 49.018 49.337,52.401 47.459,53.167 46.999 C 53.531 46.781,58.926 43.718,59.750 43.262 C 59.933 43.161,60.271 42.960,60.500 42.816 C 60.729 42.672,61.760 42.079,62.792 41.499 L 64.667 40.443 64.667 31.388 C 64.667 26.408,64.610 22.339,64.542 22.346 C 64.473 22.354,64.304 22.403,64.167 22.456 M64.332 31.458 L 64.330 40.250 63.582 40.579 C 63.170 40.760,62.833 40.957,62.833 41.017 C 62.833 41.077,62.616 41.216,62.351 41.326 C 62.085 41.436,61.729 41.653,61.559 41.808 C 61.389 41.963,60.856 42.275,60.375 42.501 C 59.894 42.727,59.500 42.960,59.500 43.019 C 59.500 43.078,59.050 43.294,58.500 43.500 C 57.950 43.706,57.500 43.938,57.500 44.016 C 57.500 44.094,57.125 44.319,56.667 44.516 C 56.208 44.713,55.833 44.943,55.833 45.026 C 55.833 45.110,55.496 45.323,55.083 45.500 C 54.671 45.677,54.333 45.899,54.333 45.994 C 54.333 46.089,54.254 46.167,54.158 46.167 C 53.873 46.167,52.436 46.859,52.252 47.085 C 52.159 47.199,51.727 47.424,51.292 47.586 C 50.856 47.747,50.500 47.942,50.500 48.020 C 50.500 48.098,50.236 48.272,49.914 48.407 C 49.592 48.541,49.284 48.768,49.230 48.909 C 48.898 49.773,48.833 48.368,48.833 40.333 C 48.833 32.593,48.864 31.500,49.083 31.500 C 49.221 31.500,49.468 31.366,49.632 31.201 C 49.796 31.037,50.190 30.802,50.507 30.678 C 50.824 30.555,51.196 30.329,51.334 30.176 C 51.472 30.023,51.959 29.715,52.417 29.491 C 52.875 29.267,53.288 29.037,53.333 28.979 C 53.379 28.922,53.827 28.700,54.328 28.485 C 54.829 28.270,55.372 27.961,55.536 27.797 C 55.700 27.634,55.946 27.500,56.083 27.500 C 56.221 27.500,56.466 27.369,56.627 27.208 C 56.789 27.048,57.276 26.729,57.710 26.500 C 58.145 26.271,58.500 26.037,58.500 25.979 C 58.500 25.921,58.950 25.706,59.500 25.500 C 60.050 25.294,60.500 25.073,60.500 25.008 C 60.500 24.943,60.894 24.709,61.375 24.487 C 61.856 24.265,62.395 23.952,62.573 23.792 C 62.751 23.631,62.976 23.500,63.073 23.500 C 63.170 23.500,63.468 23.312,63.734 23.083 C 64.001 22.854,64.244 22.667,64.276 22.667 C 64.307 22.667,64.333 26.623,64.332 31.458 " stroke="none" fill="#04141c" fill-rule="evenodd"></path><path id="path8" d="M50.125 30.262 C 49.502 30.600,49.540 30.741,50.167 30.417 C 50.442 30.274,50.667 30.123,50.667 30.079 C 50.667 29.972,50.649 29.978,50.125 30.262 M62.792 41.511 C 62.448 41.693,62.167 41.879,62.167 41.924 C 62.167 41.970,62.467 41.854,62.833 41.667 C 63.200 41.480,63.500 41.291,63.500 41.247 C 63.500 41.138,63.499 41.138,62.792 41.511 " stroke="none" fill="#042820" fill-rule="evenodd"></path></g></svg>