<svg width="1512" height="593" viewBox="0 0 1512 593" fill="none" xmlns="http://www.w3.org/2000/svg">
<path d="M539.8 414.2C547.8 414.2 556 414.267 564.4 414.4C572.933 414.4 581.267 414.6 589.4 415C597.533 415.267 604.933 415.867 611.6 416.8L609.6 447.4H559C556.467 447.4 554.467 448.067 553 449.4C551.533 450.733 550.8 452.467 550.8 454.6V513.4C550.8 515.533 551.533 517.267 553 518.6C554.467 519.933 556.467 520.6 559 520.6H609.6L611.6 551.2C604.933 552 597.533 552.6 589.4 553C581.267 553.4 572.933 553.6 564.4 553.6C556 553.733 547.8 553.8 539.8 553.8C530.333 553.8 522.533 550.933 516.4 545.2C510.4 539.333 507.4 531.733 507.4 522.4V445.6C507.4 436.267 510.4 428.733 516.4 423C522.533 417.133 530.333 414.2 539.8 414.2ZM511 468H602.4V496.8H511V468ZM750.741 415L719.341 482.6L753.541 553H710.541L679.341 482.6L707.941 415H750.741ZM661.741 415L690.341 482.6L659.141 553H616.141L650.341 482.6L618.941 415H661.741ZM703.941 470.2V494.2H662.341V470.2H703.941ZM821.292 413C835.959 413 847.426 414.4 855.692 417.2C863.959 419.867 869.826 424.6 873.292 431.4C876.759 438.2 878.492 447.733 878.492 460C878.492 472.133 876.826 481.6 873.492 488.4C870.292 495.067 864.959 499.8 857.492 502.6C850.026 505.267 839.959 506.6 827.292 506.6C820.626 506.6 813.959 506.267 807.292 505.6C800.626 504.8 794.359 503.867 788.492 502.8C782.759 501.6 777.826 500.4 773.692 499.2C769.559 497.867 766.692 496.667 765.092 495.6L765.692 476C774.359 476 783.359 476 792.692 476C802.026 476 811.226 476 820.292 476C824.292 476 827.359 475.6 829.492 474.8C831.626 473.867 833.092 472.267 833.892 470C834.692 467.6 835.092 464.267 835.092 460C835.092 455.6 834.692 452.2 833.892 449.8C833.092 447.4 831.626 445.8 829.492 445C827.359 444.067 824.292 443.6 820.292 443.6C806.692 443.6 795.092 443.667 785.492 443.8C775.892 443.933 769.359 444.2 765.892 444.6L762.892 415C769.026 414.333 774.759 413.867 780.092 413.6C785.559 413.333 791.492 413.2 797.892 413.2C804.292 413.067 812.092 413 821.292 413ZM806.292 415V553H762.892V415H806.292ZM923.589 414.2C931.589 414.2 939.789 414.267 948.189 414.4C956.722 414.4 965.056 414.6 973.189 415C981.322 415.267 988.722 415.867 995.389 416.8L993.389 447.4H942.789C940.256 447.4 938.256 448.067 936.789 449.4C935.322 450.733 934.589 452.467 934.589 454.6V513.4C934.589 515.533 935.322 517.267 936.789 518.6C938.256 519.933 940.256 520.6 942.789 520.6H993.389L995.389 551.2C988.722 552 981.322 552.6 973.189 553C965.056 553.4 956.722 553.6 948.189 553.6C939.789 553.733 931.589 553.8 923.589 553.8C914.122 553.8 906.322 550.933 900.189 545.2C894.189 539.333 891.189 531.733 891.189 522.4V445.6C891.189 436.267 894.189 428.733 900.189 423C906.322 417.133 914.122 414.2 923.589 414.2ZM894.789 468H986.189V496.8H894.789V468ZM1138.33 415V538C1138.33 548 1133.33 553 1123.33 553H1106.73C1102.2 553 1098.8 551.933 1096.53 549.8C1094.4 547.667 1092.2 544.533 1089.93 540.4L1059.93 493C1058.06 489.533 1056.33 485.8 1054.73 481.8C1053.26 477.667 1051.93 473.533 1050.73 469.4H1049.33C1050 473.533 1050.46 477.8 1050.73 482.2C1051.13 486.467 1051.33 490.6 1051.33 494.6V553H1011.33V430C1011.33 420 1016.33 415 1026.33 415H1042.93C1047.46 415 1050.8 416.067 1052.93 418.2C1055.06 420.333 1057.33 423.467 1059.73 427.6L1088.53 472.8C1090.4 476.133 1092.2 479.8 1093.93 483.8C1095.8 487.8 1097.53 492 1099.13 496.4H1100.53C1100 492.133 1099.53 487.933 1099.13 483.8C1098.86 479.667 1098.73 475.533 1098.73 471.4L1098.53 415H1138.33ZM1211.39 412.2C1218.59 412.2 1226.65 412.667 1235.59 413.6C1244.65 414.4 1253.32 416.267 1261.59 419.2L1258.99 447C1252.99 446.867 1245.52 446.8 1236.59 446.8C1227.79 446.667 1219.05 446.6 1210.39 446.6C1207.85 446.6 1205.72 446.667 1203.99 446.8C1202.39 446.933 1201.12 447.2 1200.19 447.6C1199.25 448 1198.59 448.533 1198.19 449.2C1197.79 449.867 1197.59 450.733 1197.59 451.8C1197.59 453.667 1198.39 455.267 1199.99 456.6C1201.72 457.8 1204.92 459.333 1209.59 461.2L1234.59 471.6C1246.05 476.533 1254.05 482.267 1258.59 488.8C1263.25 495.2 1265.59 503.467 1265.59 513.6C1265.59 521.333 1264.65 527.933 1262.79 533.4C1260.92 538.733 1257.79 543.067 1253.39 546.4C1249.12 549.6 1243.39 551.933 1236.19 553.4C1228.99 555 1219.99 555.8 1209.19 555.8C1204.52 555.8 1197.45 555.4 1187.99 554.6C1178.52 553.933 1167.79 552.067 1155.79 549L1158.39 518.6C1166.39 518.733 1173.72 518.933 1180.39 519.2C1187.05 519.333 1192.79 519.467 1197.59 519.6C1202.52 519.6 1206.19 519.6 1208.59 519.6C1212.32 519.6 1215.12 519.467 1216.99 519.2C1218.99 518.933 1220.32 518.467 1220.99 517.8C1221.79 517 1222.19 516 1222.19 514.8C1222.19 513.467 1221.92 512.4 1221.39 511.6C1220.85 510.667 1219.92 509.8 1218.59 509C1217.25 508.2 1215.32 507.333 1212.79 506.4L1185.39 494.4C1174.19 489.333 1166.25 483.667 1161.59 477.4C1156.92 471.133 1154.59 462.933 1154.59 452.8C1154.59 444.933 1155.59 438.4 1157.59 433.2C1159.72 428 1162.99 423.867 1167.39 420.8C1171.79 417.733 1177.59 415.533 1184.79 414.2C1192.12 412.867 1200.99 412.2 1211.39 412.2ZM1312.46 414.2C1320.46 414.2 1328.66 414.267 1337.06 414.4C1345.59 414.4 1353.92 414.6 1362.06 415C1370.19 415.267 1377.59 415.867 1384.26 416.8L1382.26 447.4H1331.66C1329.12 447.4 1327.12 448.067 1325.66 449.4C1324.19 450.733 1323.46 452.467 1323.46 454.6V513.4C1323.46 515.533 1324.19 517.267 1325.66 518.6C1327.12 519.933 1329.12 520.6 1331.66 520.6H1382.26L1384.26 551.2C1377.59 552 1370.19 552.6 1362.06 553C1353.92 553.4 1345.59 553.6 1337.06 553.6C1328.66 553.733 1320.46 553.8 1312.46 553.8C1302.99 553.8 1295.19 550.933 1289.06 545.2C1283.06 539.333 1280.06 531.733 1280.06 522.4V445.6C1280.06 436.267 1283.06 428.733 1289.06 423C1295.19 417.133 1302.99 414.2 1312.46 414.2ZM1283.66 468H1375.06V496.8H1283.66V468ZM1452.6 412.2C1459.8 412.2 1467.86 412.667 1476.8 413.6C1485.86 414.4 1494.53 416.267 1502.8 419.2L1500.2 447C1494.2 446.867 1486.73 446.8 1477.8 446.8C1469 446.667 1460.26 446.6 1451.6 446.6C1449.06 446.6 1446.93 446.667 1445.2 446.8C1443.6 446.933 1442.33 447.2 1441.4 447.6C1440.46 448 1439.8 448.533 1439.4 449.2C1439 449.867 1438.8 450.733 1438.8 451.8C1438.8 453.667 1439.6 455.267 1441.2 456.6C1442.93 457.8 1446.13 459.333 1450.8 461.2L1475.8 471.6C1487.26 476.533 1495.26 482.267 1499.8 488.8C1504.46 495.2 1506.8 503.467 1506.8 513.6C1506.8 521.333 1505.86 527.933 1504 533.4C1502.13 538.733 1499 543.067 1494.6 546.4C1490.33 549.6 1484.6 551.933 1477.4 553.4C1470.2 555 1461.2 555.8 1450.4 555.8C1445.73 555.8 1438.66 555.4 1429.2 554.6C1419.73 553.933 1409 552.067 1397 549L1399.6 518.6C1407.6 518.733 1414.93 518.933 1421.6 519.2C1428.26 519.333 1434 519.467 1438.8 519.6C1443.73 519.6 1447.4 519.6 1449.8 519.6C1453.53 519.6 1456.33 519.467 1458.2 519.2C1460.2 518.933 1461.53 518.467 1462.2 517.8C1463 517 1463.4 516 1463.4 514.8C1463.4 513.467 1463.13 512.4 1462.6 511.6C1462.06 510.667 1461.13 509.8 1459.8 509C1458.46 508.2 1456.53 507.333 1454 506.4L1426.6 494.4C1415.4 489.333 1407.46 483.667 1402.8 477.4C1398.13 471.133 1395.8 462.933 1395.8 452.8C1395.8 444.933 1396.8 438.4 1398.8 433.2C1400.93 428 1404.2 423.867 1408.6 420.8C1413 417.733 1418.8 415.533 1426 414.2C1433.33 412.867 1442.2 412.2 1452.6 412.2Z" fill="#323340"/>
<path d="M353 139C353 111.386 375.386 89 403 89H412C439.614 89 462 111.386 462 139V503C462 530.614 439.614 553 412 553H403C375.386 553 353 530.614 353 503V139Z" fill="#3C81FA"/>
<path d="M77 89H68C40.3858 89 18 111.386 18 139V503C18 530.614 40.3858 553 68 553H77C104.614 553 127 530.614 127 503V139C127 111.386 104.614 89 77 89Z" fill="#6572ED"/>
<path d="M26.3963 170.008C11.818 146.556 19.012 115.726 42.4645 101.148L50.1081 96.3962C73.5607 81.818 104.391 89.012 118.969 112.465L295.772 396.893L203.199 454.437L26.3963 170.008Z" fill="#3C81FA"/>
<path d="M550.918 113.433L544.51 107.115C524.846 87.7265 493.189 87.9496 473.801 107.613L201.105 384.181C181.717 403.844 181.94 435.502 201.603 454.89L208.012 461.209C227.675 480.597 259.333 480.374 278.721 460.71L551.417 184.142C570.805 164.479 570.582 132.822 550.918 113.433Z" fill="#FEAC4F"/>
<path d="M605.5 109C635.6 109 660 84.5995 660 54.5C660 24.4005 635.6 0 605.5 0C575.4 0 551 24.4005 551 54.5C551 84.5995 575.4 109 605.5 109Z" fill="#FEAC4F"/>
<path d="M422.5 109C452.6 109 477 84.5995 477 54.5C477 24.4005 452.6 0 422.5 0C392.4 0 368 24.4005 368 54.5C368 84.5995 392.4 109 422.5 109Z" fill="#FEAC4F"/>
</svg>
