<svg xmlns="http://www.w3.org/2000/svg" viewBox="0 0 400 100"><g fill-rule="evenodd"><path fill="#04b93c" d="M46.957.188c-.16.089-.29.268-.29.398s-.096.2-.213.155c-.118-.045-.361.037-.542.181-.318.255-.317.257.046.081.207-.1.375-.123.375-.051-.001.072-.332.268-.737.434-.405.167-.949.485-1.208.708-.259.223-.598.406-.753.406-.155 0-.329.076-.387.169-.057.094-.186.119-.285.058-.11-.068-.133-.034-.06.085.118.19-1.159.893-1.736.957-.345.037-1.167.371-1.167.473 0 .046.188.012.417-.075.661-.252.484-.041-.273.325-.379.183-.754.293-.833.244-.08-.049-.144.011-.144.133 0 .122-.282.366-.625.543-.344.176-.794.469-1 .65-.207.181-.375.277-.375.213 0-.064-.188.007-.417.157-.295.193-.417.213-.417.067 0-.164-.051-.164-.248-.001-.136.114-.214.262-.172.33.12.193-.71.509-1.022.389-.18-.069-.239-.042-.166.076.125.202-.119.405-.539.451-.346.037-1.186.389-1.186.497 0 .045.112.039.25-.014.522-.2.219.095-.521.509-.875.489-1.11.552-.636.17.214-.172.239-.239.074-.197-.138.034-.324.226-.415.427-.09.2-.259.364-.375.364-.405 0-.461.025-.598.269-.087.157-.268.209-.5.144-.255-.072-.296-.055-.136.055.298.207-.016.404-.405.254-.213-.082-.256-.053-.159.105.09.145.058.19-.097.137-.128-.044-.39.089-.584.295-.501.534-1.395.98-1.409.704-.005-.117-.078-.043-.162.164-.083.208-.341.452-.573.542-.231.09-.627.251-.879.358-.252.106-.515.181-.583.167-.069-.015-.125.074-.125.197 0 .211-.786.627-1.622.86-.204.056-.354.192-.333.301.023.123-.135.18-.42.15-.529-.055-1.126.217-1.123.512.002.13.066.113.18-.047.157-.223.168-.223.101 0-.041.137-.172.227-.29.199-.248-.059-1.207.309-1.096.42.041.041.237-.013.436-.119.199-.107.401-.155.449-.107.048.048-.2.207-.55.353-.351.147-.695.357-.766.468-.092.145-.129.148-.13.01-.003-.212-.618-.109-.764.127-.049.08.027.1.169.046.142-.055.259-.05.259.01 0 .129-1.192.669-1.375.624-.069-.017-.125.081-.125.219 0 .137-.08.25-.177.25-.097 0-.128-.094-.069-.209.059-.114-.039-.028-.218.192-.233.287-.347.336-.401.174-.056-.17-.267-.105-.843.26-.423.267-.734.542-.693.609.042.068-.075.205-.261.305-.228.121-.338.124-.338.008 0-.095.087-.173.194-.173.107 0 .155-.039.107-.087-.168-.168-.653.133-.568.354.047.122.002.274-.1.337-.118.073-.141.031-.063-.12.089-.171.062-.167-.1.016-.506.574-.876.78-.749.417.1-.287.075-.28-.185.051a2.972 2.972 0 0 1-.711.621c-.825.476-1.58.805-1.771.771a.32.32 0 0 0-.302.136c-.058.094-.007.174.113.178.12.003-.037.117-.349.252s-.605.207-.653.16c-.047-.047.014-.086.137-.086.122 0 .183-.039.135-.087-.153-.152-.635.114-.635.35 0 .134-.103.187-.252.13-.18-.069-.223-.02-.149.172.069.181.012.269-.175.269-.167 0-.23-.077-.158-.193.074-.12.045-.147-.077-.072-.107.067-.158.18-.114.252.096.156-.736.586-1.034.534-.114-.02-.208.068-.208.196 0 .231-1.127.839-1.387.748-.075-.027-.214.09-.308.259-.095.169-.432.416-.75.548-.955.399-1.737-.11 10.242 6.673.392.222 1.882 1.074 3.311 1.892 2.125 1.216 2.655 1.456 2.915 1.317.174-.093.391-.124.48-.069.09.056.164-.007.164-.139 0-.262.89-.7 1.126-.555.08.05.254-.062.385-.248.273-.388 1.331-.974 1.774-.983.164-.003.486-.118.715-.257.384-.231.388-.243.041-.149-.598.162-.435-.043.334-.418A30.09 30.09 0 0 0 28 30.727c.412-.237.85-.446.972-.465a.55.55 0 0 0 .333-.209c.21-.326 1.195-.75 1.197-.516.002.117.096.031.209-.191.113-.221.318-.436.456-.477.149-.044.116.032-.084.19-.458.363-.267.339.512-.065.417-.216.503-.303.238-.24-.276.066-.14-.078.406-.43.453-.291.989-.54 1.193-.552.203-.012.335-.078.293-.146-.043-.069.115-.212.349-.319.234-.106.426-.265.426-.352 0-.087.206-.11.458-.051.254.059.369.046.257-.03-.147-.099-.113-.191.125-.339.215-.135.327-.144.327-.027 0 .098.076.131.169.074.093-.058.118-.188.056-.289-.074-.119-.013-.145.173-.073.163.062.244.042.188-.048-.128-.207.875-.722 1.179-.606.135.052.235-.012.235-.149 0-.148.099-.202.256-.141.16.061.239.016.209-.12-.055-.248 1.088-.872 1.174-.64.084.229.379.18.348-.058-.048-.375.01-.625.138-.586.131.04 1.334-.537 2.041-.981.386-.241.393-.241.093.007-.177.148-.238.269-.134.269.104 0 .296-.153.427-.341.132-.187.305-.325.385-.307.285.064 1.284-.473 1.045-.562-.309-.115.981-.685 1.476-.652.206.013.375-.047.375-.135 0-.088-.131-.113-.292-.057-.203.072-.241.048-.125-.076.167-.179 2.346-1.37 2.507-1.37.047 0 .064 2.587.039 5.75-.025 3.162.012 5.75.083 5.75.071 0 .124-2.643.117-5.873-.008-3.962.045-5.891.163-5.93.12-.04.175 1.804.175 5.867 0 5.573.017 5.919.291 5.818.161-.059 1.83-.982 3.709-2.049 1.879-1.068 5.441-3.09 7.916-4.494 2.475-1.404 4.632-2.666 4.792-2.805.268-.232.292-.749.292-6.314V9.325l-.417-.158c-.274-.105-.418-.288-.419-.538-.002-.275-.042-.317-.146-.153-.113.179-.218.185-.511.028-.203-.109-.326-.24-.274-.293.11-.11-.405-.534-.65-.534-.092 0-.021.11.157.245.527.398.158.279-.485-.157-.326-.222-.535-.434-.466-.473.07-.039.033-.048-.082-.019-.286.07-1.113-.256-.982-.387.174-.174-.232-.54-.49-.441-.132.051-.339.01-.461-.092-.122-.101-.271-.134-.331-.074-.061.061-.11-.015-.11-.168a.287.287 0 0 0-.292-.279c-.342-.001-1.235-.557-1.236-.769a.343.343 0 0 0-.096-.23c-.053-.046-.042.011.024.125.177.308-.006.258-.829-.224-.406-.238-.703-.489-.66-.559.043-.069-.107-.211-.333-.314-.226-.103-.411-.126-.411-.051 0 .075-.409-.058-.908-.295-.556-.264-.88-.516-.836-.649.04-.119.018-.183-.05-.141-.16.098-1.512-.593-1.575-.805a.263.263 0 0 0-.215-.176c-.34-.026-.745-.283-.661-.42.048-.077-.06-.219-.24-.316-.477-.255-.63-.213-.256.07.178.135.245.247.148.25-.098.003-.323-.105-.5-.239-.178-.135-.257-.247-.175-.25.197-.007-.703-.839-.908-.839-.087 0-.159.094-.16.208-.002.131-.049.146-.125.041-.156-.214-1.539-.242-1.539-.032 0 .089-.091.082-.21-.017-.139-.115-.309-.12-.5-.012m18.376 14.979c0 4.421.046 5.667.209 5.669.139.002.125.056-.042.164-.138.089-.175.16-.083.159.091-.002.316-.123.5-.27.27-.217.278-.248.041-.167-.274.095-.291-.242-.291-5.561 0-3.663-.059-5.661-.167-5.661-.108 0-.167 2-.167 5.667m-37.426-4.089c-.178.135-.244.247-.147.25.097.003.322-.105.5-.239.178-.135.244-.247.147-.25-.097-.003-.322.104-.5.239m-1.557.848c-.312.135-.531.282-.487.326.044.044.374-.067.734-.246.763-.381.581-.44-.247-.08m48.579 3.503c-.325.325-.333.421-.025.303a.655.655 0 0 0 .328-.328c.118-.308.022-.3-.303.025m-2.855 1.649c-.421.318-.239.322.365.006.263-.137.361-.249.218-.25-.143 0-.406.109-.583.244m7.759.422c.386.335.5.394.5.262 0-.147-.53-.595-.704-.595-.099 0-.007.15.204.333m-9.093.411c-.178.135-.248.245-.157.245.092 0 .313-.11.491-.245.177-.134.248-.244.156-.244-.091 0-.312.11-.49.244m10.07.079c.217.189.473.343.57.343.205 0 .195-.008-.463-.393l-.5-.293.393.343m6.023 3.51c.212.183.46.333.551.333.092 0-.006-.15-.217-.333-.212-.183-.46-.333-.551-.333-.092 0 .006.15.217.333m4.496 2.578c.1.121.334.259.519.308.264.069.298.04.156-.131-.1-.12-.333-.259-.519-.307-.264-.069-.298-.041-.156.13m-48.218 9.366c-.061.062-.106.268-.1.459.009.319.023.315.17-.052.163-.408.129-.606-.07-.407M21.746 49.583c.001 8.25.021 11.601.046 7.446.024-4.155.024-10.905 0-15-.025-4.095-.046-.696-.046 7.554m53.334.584c0 8.295.02 11.689.045 7.541.025-4.148.025-10.935 0-15.083s-.045-.754-.045 7.542M37.672 36.621c-.218.246-.212.263.055.161.165-.064.332-.115.37-.115.038 0 .07-.075.07-.167 0-.245-.216-.192-.495.121m34.068.457c-.178.135-.248.245-.157.245.092 0 .313-.11.491-.245.177-.135.248-.245.156-.245-.091 0-.312.11-.49.245M33.333 39.03c-.238.1-.329.208-.212.251.112.043.372-.041.578-.185.424-.297.255-.327-.366-.066m33.75.74-.5.424.542-.268c.298-.147.542-.341.542-.43 0-.218-.01-.214-.584.274m-.916.545c0 .113-.075.158-.167.102-.092-.057-.167-.024-.167.073s-.112.177-.25.177c-.219 0-.25 1.139-.25 9.25 0 6.055.058 9.25.167 9.25.109 0 .167-3.16.167-9.147v-9.146l.375-.252c.206-.139.318-.31.25-.382-.069-.071-.125-.037-.125.075m-34.889.129c-.061.062-.111 4.247-.111 9.3 0 7.123-.047 9.239-.209 9.41-.168.178-.16.206.042.145.218-.067.256-1.278.293-9.355.028-5.992.102-9.277.208-9.277.108 0 .166 3.246.166 9.25 0 6.055.057 9.25.166 9.25.267 0 .226 18.91-.041 19.132-.162.133-.198 1.535-.163 6.197l.046 6.024.608.254c.48.201.558.29.371.423-.185.131-.168.145.075.066.415-.135.881.225.571.442-.144.099-.091.115.156.045.482-.135 1.382.377 1.253.713-.068.177-.007.215.224.143.174-.054.429-.026.567.062.137.088.179.161.093.163-.293.005.489.492.798.497.429.007 1.457.514 1.36.67-.043.07.145.173.418.228.285.057.498.205.498.347 0 .253.627.688.777.539.044-.045-.075-.131-.265-.191-.19-.061-.346-.182-.346-.27 0-.158 1.006.285 1.167.514.046.065.254.208.463.318.209.11.34.264.293.341-.095.154.382.412.678.367.327-.049 1.733.652 1.733.865 0 .113.147.217.326.231.18.014.672.236 1.093.494.422.258 1.033.605 1.358.77.326.166.553.341.505.389-.048.048-.262-.003-.476-.114-.325-.167-.354-.163-.178.023.116.123.416.239.666.257.251.019.516.04.591.047.074.008.083.097.02.198-.079.129-.157.116-.257-.042-.1-.157-.144-.164-.146-.023-.004.32.579.566.805.34.146-.146.193-.123.193.091a.28.28 0 0 0 .291.28c.206-.001.231-.041.086-.133-.122-.078.029-.131.373-.131.343 0 .495.053.372.131-.145.092-.119.132.086.133.16.002.292-.102.292-.231 0-.159.117-.204.361-.14.284.074.339.036.257-.177-.057-.15-.038-.312.041-.361.08-.05.171-.018.201.069.031.088.356.012.723-.168.367-.18.517-.281.333-.223-.871.274-.94.228-.262-.175.405-.241.835-.4.956-.354.12.047.201.003.179-.097-.021-.1.065-.22.192-.266.155-.056.188-.013.099.13-.087.142-.066.173.063.094.108-.067.159-.18.115-.251-.107-.173 1.143-.774 1.462-.703.076.017.092-.043.037-.133-.056-.09.126-.281.404-.425.287-.148.505-.187.505-.09 0 .094-.087.171-.194.171-.107 0-.155.039-.107.087.142.143.641-.109.54-.273-.125-.202.217-.505.958-.848.395-.182.635-.22.673-.107.033.099.168.044.303-.123.147-.181.161-.251.036-.175-.115.069-.209.055-.209-.031s.37-.315.821-.509c.451-.194.921-.447 1.044-.562.347-.324 1.412-.833 1.837-.877.555-.058.573-.072.303-.243-.205-.129-.191-.172.083-.259.181-.058.46-.175.621-.261.188-.1.291-.096.291.013 0 .307.309.173.422-.182.115-.361 1.478-1.088 1.887-1.006.135.027.176-.034.103-.152-.133-.216.197-.489.588-.484.19.002.172.061-.073.247-.178.135-.244.245-.146.245.231 0 .579-.418.454-.544-.144-.144.579-.488.773-.368.092.057.147.016.121-.091-.06-.254 1.099-.897 1.18-.653.033.098.17.022.304-.169.293-.418 1.793-1.209 1.977-1.043.072.065.076.022.008-.094-.081-.142.072-.293.462-.456.321-.134.633-.324.694-.421.06-.098.241-.155.402-.128.161.028.299-.015.307-.095.02-.212.964-.752 1.479-.845.246-.045.528-.168.627-.274.138-.147.091-.147-.194-.001-.206.107-.375.155-.375.108 0-.22 1.406-.793 1.471-.599.039.118.146.045.257-.174.104-.207.301-.41.439-.451.15-.044.116.032-.083.19-.184.145-.259.264-.167.264.216 0 .864-.488.657-.495-.086-.003-.011-.115.167-.25.177-.135.402-.242.5-.239.097.003.03.115-.148.25-.177.134-.252.243-.166.242.295-.005.591-.278.54-.5-.055-.245 1.857-1.336 2.101-1.198.083.047.102.006.042-.09-.059-.096.01-.22.155-.276.379-.145.435-.126.314.108-.059.115.047.021.236-.208.19-.229.346-.329.348-.222.003.119.315.03.796-.224.948-.503 1.102-.638.541-.474-.402.117-.405.112-.083-.133.214-.163.399-.198.521-.097.127.106.216.051.273-.167.047-.178.404-.487.794-.686.561-.286.689-.308.611-.105-.068.177-.023.228.143.165.133-.051.241-.16.241-.242 0-.082.132-.15.292-.151.25-.002.256-.026.042-.167-.292-.192.022-.49.521-.495.149-.001.367-.118.485-.26.118-.142.298-.225.402-.185.103.039.41-.033.681-.16l.494-.233-.5.085-.5.085.472-.263c.26-.145.579-.222.708-.172.141.053.237-.013.237-.164 0-.14.068-.213.151-.162.083.052.327.017.542-.078.382-.168.383-.17.015-.099-.206.04-.375.038-.375-.005 0-.109 1.557-.8 1.708-.759.069.019.126-.059.128-.174.001-.115.395-.396.875-.625.48-.229.947-.5 1.039-.602.237-.263.75-.418.75-.226 0 .309.263.158.538-.308l.277-.468-4.866-2.768-7.866-4.477c-3.885-2.214-4.102-2.319-4.435-2.141-.149.08-.318.098-.376.04-.058-.058-.105-.01-.105.107 0 .117-.109.17-.242.119-.154-.059-.211-.012-.156.129.084.22-.898.688-1.074.512-.046-.046.016-.084.138-.084.123 0 .176-.047.118-.104-.057-.058-.369.167-.691.5-.323.332-.72.616-.882.63-.493.042-.599.075-1.43.447-.442.197-.758.43-.703.519.054.088-.128.278-.406.422-.278.144-.506.205-.506.137 0-.069-.11.033-.246.227-.206.293-.477.43-1.254.634-.459.12-.842.301-.777.367.045.045.239-.002.43-.104.191-.103.347-.148.347-.1 0 .048-.393.278-.875.513-.742.362-.815.375-.481.086.426-.369.359-.442-.155-.168-.177.095-.322.281-.322.414 0 .28-1.562 1.123-1.756.948-.072-.065-.082-.032-.022.073.06.105-.009.236-.153.292-.381.146-.437.126-.302-.108.07-.121.056-.15-.032-.069a.497.497 0 0 0-.152.309c0 .094-.234.294-.519.445-.286.15-.83.444-1.209.652-.471.259-.689.311-.691.167-.001-.117-.095-.03-.208.192-.113.221-.302.422-.418.445-.117.024-.136.005-.042-.042s.171-.154.171-.239c0-.085-.145-.064-.323.047-.177.111-.295.247-.261.302.034.055-.083.19-.26.301-.195.122-.323.135-.323.033 0-.092.087-.168.194-.168.107 0 .156-.039.108-.087-.162-.161-.655.128-.575.337.085.222-2.397 1.713-3.332 2.001a2.452 2.452 0 0 0-.906.556c-.222.238-.483.357-.675.307-.173-.046-.314-.014-.314.069s-.11.151-.245.151c-.159 0-.208.096-.138.276.084.22.031.258-.256.183-.199-.052-.324-.035-.279.039.046.073-.035.179-.18.234-.366.141-.438.127-.32-.064.059-.094-.008-.122-.157-.065-.142.054-.258.202-.258.328s-.319.391-.709.589c-.389.199-.933.527-1.208.729-1.16.854-1.083 1.233-1.083-5.328 0-3.755-.061-5.939-.167-6.005-.2-.123-.236-18.354-.036-18.477.118-.073 2.968 1.485 6.953 3.803 1.33.773 6.977 3.98 8.859 5.031.388.216.747.393.798.393.051 0 .093-4.2.093-9.333 0-7.356-.044-9.333-.209-9.332-.114.001-.808.348-1.541.772a640.233 640.233 0 0 1-7 3.973 687.171 687.171 0 0 0-5.071 2.881l-2.904 1.668-.513-.289-3.846-2.167c-1.833-1.033-3.52-2.005-3.75-2.159a11.114 11.114 0 0 0-1-.576 20.104 20.104 0 0 1-.916-.492 696.94 696.94 0 0 0-3.25-1.849c-1.604-.909-3.035-1.753-3.18-1.875-.289-.243-.538-.282-.709-.111M64.25 60.089c-.419.202-.432.225-.083.141.229-.056.488-.167.575-.249.216-.202.097-.176-.492.108m-1.49.833c-.412.311-.141.308.407-.005.241-.138.311-.239.166-.239-.137 0-.395.109-.573.244m-3.927 2.175c-.259.144-.318.232-.157.234.143.001.406-.108.584-.242.404-.306.13-.301-.427.008m-36.291.834c-.298.13-.542.275-.542.322 0 .087 1.169-.367 1.311-.508.142-.142-.219-.055-.769.186m35.208-.145c-.441.106-.729.381-.399.381.139 0 .398-.11.575-.245.178-.135.286-.238.241-.231-.046.008-.234.05-.417.095m12.75 4.381a1.104 1.104 0 0 1-.5.161c-.222 0-.222-.018 0-.161.137-.089.362-.162.5-.162.222 0 .222.018 0 .162M49 74.583c0 3.102.041 5.598.092 5.547.112-.112.099-10.995-.013-11.107-.043-.043-.079 2.459-.079 5.56m12.093-1.494c-.416.314-.262.312.346-.005.263-.137.365-.247.228-.244-.138.002-.396.114-.574.249m-30.261 5.934c-.208.146-.201.16.043.081.273-.088.294.263.331 5.61l.039 5.703.047-5.656c.046-5.638.011-6.071-.46-5.738M55.81 96.01l-.393.343.5-.293c.658-.385.668-.393.463-.393-.097 0-.353.154-.57.343"/><path fill="#04228d" d="M75.394 15.749c-.053.137-.16.21-.238.161-.078-.048-.562.159-1.076.46-1.744 1.021-3.161 1.804-3.788 2.092-.344.159-.593.373-.554.477.04.107-.173.228-.496.28-.311.051-.887.306-1.279.569a12.7 12.7 0 0 1-1.13.68c-.229.112-.754.414-1.166.671l-.75.466-.04 9.439c-.025 5.952.019 9.475.121 9.538.163.101 2.172-1 2.71-1.486.161-.144.404-.263.542-.263.137 0 .25-.063.25-.14 0-.077.3-.23.667-.34.366-.11.666-.268.666-.352 0-.084.354-.308.786-.5.432-.191.826-.406.875-.477.049-.072.464-.309.923-.528.788-.376.978-.496 1.465-.926.113-.099.41-.232.661-.295.251-.063.457-.188.457-.278 0-.09.112-.164.25-.164.22 0 .25 1.803.253 15.209l.004 15.208 2.528 1.417c1.391.779 2.87 1.612 3.288 1.851.418.239 1.135.643 1.594.897.458.255.908.518 1 .585.091.067.616.37 1.166.672 1.508.828 2.111 1.168 4.834 2.719l2.5 1.424.042-24.848c.033-19.718-.001-24.9-.167-25.101-.115-.139-.563-.417-.997-.618-.434-.201-.749-.406-.7-.454.08-.081-.241-.227-1.178-.537-.345-.114.404.351 1.735 1.076 1.077.587.839 1.029-1.038 1.925-.292.14-.831.438-1.197.663-.367.226-.93.543-1.25.706-.321.162-.771.416-1 .563-.586.375-6.402 3.68-7.417 4.214-.615.323-1.64.917-2.417 1.399-1.063.66-1 1.22-1-8.898v-9.261l.459.318c.673.466 1.154.624.874.288-.117-.142-.247-.225-.287-.185-.04.041-.217-.07-.393-.246-.381-.381-.959-.418-1.092-.07m2.273.884c0 .079.206.247.458.373.715.357.818.374.458.077-.494-.406-.916-.614-.916-.45m1.712 1.034c.233.183.469.333.526.333.056 0 .407.193.781.429.373.235.722.385.774.333.121-.121.159-.094-1.154-.817-1.237-.682-1.565-.78-.927-.278m2.621 1.5c.229.179.529.327.667.329.137.001.004-.147-.296-.33-.696-.424-.914-.424-.371.001m1.5.828c.455.35 1.056.564.907.323-.051-.083-.204-.151-.339-.151-.135 0-.288-.113-.341-.25a.418.418 0 0 0-.37-.247c-.206.003-.17.083.143.325m1.5.786c0 .085.3.287.667.449.366.162.666.355.666.429 0 .075.15.175.334.223.183.048.333.019.333-.064s-.065-.151-.143-.151c-.079 0-.417-.186-.75-.412-.334-.226-.607-.367-.607-.313 0 .054-.112.005-.25-.109s-.25-.137-.25-.052m2.336 1.341c.003.192 1.664 1.071 1.664.881 0-.09-.375-.354-.833-.586-.459-.233-.833-.365-.831-.295m-39.831 9.309c-.318.138-.693.351-.833.473-.141.123-.855.537-1.589.921-.733.383-1.502.842-1.708 1.018-.206.177-.375.286-.375.242 0-.113-1.317.587-1.421.755-.11.178-1.955 1.071-2.121 1.027-.068-.019-.125.032-.125.113 0 .08-.234.243-.521.362a3.256 3.256 0 0 0-.89.585c-.203.202-.6.419-.884.481-.283.063-.606.224-.718.358-.112.135-.548.419-.97.632-1.592.805-2.778 1.457-3.1 1.705l-.333.257.333.248c.499.372 15.835 9.059 15.993 9.059.05 0 .09-4.163.09-9.25 0-5.088-.056-9.247-.125-9.244-.068.004-.385.12-.703.258M18.583 66.787a235.251 235.251 0 0 1-2.75 1.582C8.665 72.325 4.5 74.758 4.5 74.991c0 .114.953.557 1.627.755.208.061.34.173.293.249-.077.124.132.268.457.314.299.042 1.217.588 1.34.797a.513.513 0 0 0 .401.227c.147 0 .509.185.804.41.295.225.584.362.641.305.057-.057.104-.026.104.068 0 .095.338.301.751.459.413.158.708.355.657.439-.052.084-.015.162.082.174.586.069 1.81.651 1.908.908.05.131.248.237.44.237.191 0 .302.075.245.167-.057.092.051.167.24.167s.487.143.663.319c.175.176.363.276.416.222.054-.053.098-.009.098.098 0 .106.056.186.125.176.241-.035.875.225.875.359 0 .123 1.676.992 1.913.992.056 0 .295.18.533.401.237.22.652.444.92.498.269.053.447.166.394.25-.052.085.056.114.239.066.345-.09.553-18.571.209-18.535-.069.008-1.1.581-2.292 1.274"/><path fill="#0474bb" d="M4.333 49.813c0 13.969.064 25.02.145 25.02.079 0 .323-.136.541-.303.219-.167 2.185-1.31 4.369-2.542 5.187-2.923 5.752-3.24 6.445-3.621a280.76 280.76 0 0 0 2.804-1.594c1.22-.7 2.252-1.273 2.291-1.273.04 0 .072 4.162.072 9.25 0 6.436-.054 9.25-.178 9.25-.097 0-.341-.08-.541-.178-.311-.152-.303-.128.052.163.429.35 1.167.471 1.167.191 0-.087.45-.359 1-.606s1-.502 1-.567c0-.066.281-.241.625-.391.344-.149 1.188-.608 1.875-1.02.688-.412 1.56-.895 1.94-1.073.379-.179.717-.387.75-.463.033-.077.576-.402 1.206-.723a36.42 36.42 0 0 0 1.625-.872l.479-.289v-9.503c0-6.466-.055-9.502-.173-9.502-.195 0-1.531.655-1.66.814-.046.056-.421.275-.834.486-1.599.819-2.565 1.369-2.655 1.512-.052.083-.392.274-.755.425-.364.152-.701.338-.75.414-.05.077-.54.372-1.09.656a66.36 66.36 0 0 0-1.5.797c-.662.37-1.059.562-1.164.562-.047 0-.086-6.812-.086-15.138V34.556l-3.041-1.736c-1.673-.955-3.192-1.82-3.375-1.922-2.319-1.286-10.218-5.803-10.375-5.933-.167-.138-.209 4.851-.209 24.848m44.107.303c-.186.185-.124 18.353.062 18.469.18.111.49-.03 2.111-.962.566-.325 1.073-.548 1.125-.496.052.052.095.025.095-.061s.357-.342.792-.569c.435-.228.837-.475.892-.55.055-.075.468-.322.917-.549a45.51 45.51 0 0 0 1.649-.887 55.93 55.93 0 0 1 1.548-.843c.392-.204.807-.456.921-.561.113-.105.58-.376 1.036-.603.456-.227.868-.466.915-.531.048-.065.423-.279.834-.475 1.168-.557 2.086-1.08 2.584-1.472.252-.197.56-.359.685-.359.397 0 .245-.45-.232-.688-.523-.26-6.694-3.753-8.957-5.07a756.568 756.568 0 0 0-6.769-3.843c-.056-.031-.149-.009-.208.05"/><path fill="#040404" d="M41.338 3.493c-.135.086-.204.196-.154.246.05.05.235-.018.412-.152.351-.266.137-.343-.258-.094m13.9.094c.176.134.362.202.412.152.104-.104-.319-.402-.567-.398-.091.002-.022.112.155.246M35.333 6.942c-.229.121-.304.22-.166.22.287 0 .779-.279.662-.375-.044-.035-.266.034-.496.155M61 6.822c0 .069.188.21.417.314.229.105.416.136.415.069-.001-.067-.188-.208-.417-.314-.228-.106-.415-.137-.415-.069m4.206 8.643c-.034 5.013-.005 5.85.192 5.667.128-.119.166-.257.086-.307-.08-.051-.167-2.601-.192-5.667l-.047-5.575-.039 5.882m-22.873 7.212c0 .097-.093.123-.208.058-.16-.09-.163-.068-.015.093.107.115.276.159.375.098.228-.141.238-.426.015-.426a.172.172 0 0 0-.167.177m67.334 5.089c-.138.05-.4.155-.584.233-.183.078-.761.27-1.284.425-.523.156-1.079.424-1.234.597-.156.172-.359.312-.45.312-1.028 0-3.472 3.819-3.787 5.917-.11.733-.261 1.483-.336 1.667-.075.183-.296 2.133-.492 4.333s-.421 4.15-.5 4.333c-.08.184-.306 2.134-.502 4.334-.196 2.2-.421 4.15-.5 4.333-.079.183-.304 2.133-.5 4.333s-.423 4.15-.503 4.334c-.125.286-.4 2.872-.779 7.333-.055.642-.18 1.219-.279 1.283-.118.077-.032.387.254.917l.432.8 5.47.044 5.471.044.44-.482c.426-.467.829-3.217.829-5.656 0-.294.061-.533.134-.533.074 0 .312-2.194.53-4.875.217-2.682.443-4.913.502-4.959.058-.045.275-2.183.481-4.75.206-2.566.445-4.797.531-4.956.086-.159.157-.684.158-1.166.003-1.1.243-1.567.393-.766.058.309.243.822.412 1.141.168.32.398.956.51 1.414.113.458.301.983.419 1.167.118.183.386.914.596 1.625.211.71.447 1.291.525 1.291.079 0 .143.1.143.222 0 .315.695 2.511.827 2.612.124.094.839 2.324.839 2.615 0 .105.075.215.166.246.091.03.321.617.512 1.303.19.685.403 1.285.474 1.333.072.047.299.649.506 1.336.207.688.426 1.288.487 1.333.061.046.284.684.495 1.417.211.733.454 1.358.539 1.389.085.03.155.185.155.344 0 .158.21.49.467.736l.468.448h5.215c6.094 0 5.962.032 6.347-1.574.123-.51.28-.926.351-.926.07 0 .247-.432.392-.959.145-.527.374-1.183.509-1.458.136-.275.406-1.025.6-1.667.195-.641.405-1.204.466-1.25.062-.045.295-.683.518-1.416.223-.734.45-1.371.505-1.417.121-.102.828-2.347.828-2.63 0-.112.064-.203.143-.203.078 0 .313-.582.521-1.292.208-.71.443-1.372.521-1.471.078-.099.301-.699.496-1.334.195-.634.412-1.228.483-1.32.071-.092.302-.729.514-1.417.212-.687.435-1.287.495-1.333.06-.046.172-.308.248-.583.104-.376.206.225.407 2.416.148 1.605.316 3.029.373 3.167.057.137.266 2.313.463 4.833.198 2.521.423 4.734.5 4.917.078.183.304 2.396.503 4.917s.425 4.733.502 4.916c.077.184.175.793.218 1.354.043.561.207 1.218.365 1.458l.287.438h10.946l.424-.424c.234-.233.425-.583.425-.777 0-.933-.542-6.089-.671-6.382-.125-.287-.4-2.863-.78-7.333-.055-.642-.149-1.205-.21-1.25-.06-.046-.288-1.996-.506-4.334-.218-2.337-.443-4.287-.5-4.333-.058-.046-.274-1.921-.48-4.167-.207-2.246-.441-4.233-.52-4.416-.079-.184-.226-1.277-.327-2.429-.211-2.408-.348-3.006-1.02-4.447-.268-.573-.486-1.087-.486-1.142 0-.056-.188-.249-.417-.429-.229-.18-.417-.404-.417-.499 0-.495-2.612-2.321-3.781-2.642-.441-.122-.855-.302-.921-.4-.18-.271-5.331-.243-5.423.029-.038.115-.218.209-.399.209-.384 0-1.93.639-2.303.953-1.829 1.533-2.713 2.696-3.11 4.088-.15.527-.327.959-.393.959s-.253.506-.415 1.125c-.163.618-.388 1.275-.5 1.458-.113.183-.377.915-.587 1.625-.211.71-.447 1.292-.525 1.292-.079 0-.143.091-.143.203 0 .283-.707 2.528-.828 2.63-.055.046-.282.683-.505 1.417-.223.733-.453 1.371-.511 1.416-.129.103-.822 2.305-.822 2.612 0 .122-.064.222-.143.222-.078 0-.313.581-.521 1.291-.208.711-.436 1.367-.506 1.459-.071.091-.238.495-.373.898l-.244.731-.352-.731a12.44 12.44 0 0 1-.618-1.69c-.147-.527-.322-.958-.388-.958-.067 0-.264-.572-.438-1.272-.175-.699-.415-1.368-.534-1.488-.119-.119-.217-.276-.217-.349 0-.307-.743-2.479-.866-2.53-.073-.031-.134-.141-.134-.246 0-.294-.716-2.522-.84-2.615-.061-.046-.282-.646-.491-1.334-.208-.687-.434-1.325-.502-1.416-.068-.092-.294-.729-.502-1.417-.209-.687-.426-1.288-.481-1.333-.12-.099-.421-.965-.679-1.959-.101-.389-.25-.708-.331-.708-.082 0-.234-.263-.34-.584-.203-.612-2.21-2.749-2.584-2.749-.118 0-.255-.108-.306-.239-.05-.131-.527-.373-1.059-.537-.532-.164-1.02-.374-1.085-.466-.123-.177-4.533-.318-4.966-.159m-79.835 1.986c-.168.202-.157.248.054.248.312 0 .515-.272.302-.403-.083-.051-.243.018-.356.155m-5.499 3.081c0 .103-.075.14-.168.083-.092-.057-.214.017-.27.164-.154.4-.019.432.422.099.261-.197.331-.338.206-.415-.104-.064-.19-.033-.19.069m50.17 2.624c-.262.103-.754.543-.606.543.222 0 .936-.402.936-.527 0-.077-.018-.134-.041-.127a12.02 12.02 0 0 0-.289.111M31.578 50c0 5.087.021 7.169.047 4.625.026-2.544.026-6.706 0-9.25-.026-2.544-.047-.462-.047 4.625m33.666.083c0 5.042.022 7.129.048 4.637.025-2.491.025-6.616 0-9.167-.026-2.55-.048-.511-.048 4.53m216.839-7.501c-1.495.379-2.758 1.261-4.083 2.853-.943 1.133-1.021 2.382-.966 15.482.047 10.902.065 11.523.36 11.958l.311.458h7.423l.311-.458c.292-.43.314-.98.359-8.833.026-4.607.109-8.375.185-8.375s.269.415.428.922c.16.507.383 1.015.498 1.129.114.114.303.506.42.87.117.364.384.999.594 1.412.21.413.518 1.087.683 1.5.166.413.346.788.4.833.054.046.272.552.483 1.125.212.573.451 1.042.531 1.042.081 0 .147.111.147.246 0 .136.254.792.565 1.459.311.666.689 1.509.84 1.872.151.364.328.701.393.75.065.05.266.39.446.756.375.765.471.892 1.452 1.925 1.283 1.352 2.44 1.867 4.389 1.956 1.609.073 3.581-.174 3.581-.449 0-.071.305-.229.677-.352 1.026-.338 2.759-2.075 3.134-3.141.166-.471.351-.906.412-.967.061-.061.111-5.76.111-12.665V43.336l-.364-.418-.363-.418h-3.605c-4.073 0-4.12.013-4.344 1.177-.079.407-.155 4.302-.17 8.656-.014 4.355-.061 7.786-.103 7.625-.041-.16-.139-.291-.217-.291-.077 0-.303-.488-.501-1.084-.198-.596-.422-1.083-.498-1.083-.076 0-.27-.42-.431-.933-.161-.513-.382-1.02-.49-1.128-.107-.108-.326-.59-.486-1.07-.159-.48-.396-.98-.526-1.109-.13-.13-.236-.307-.236-.393 0-.22-.711-1.933-.844-2.034-.061-.045-.169-.27-.241-.5-.071-.229-.419-1.031-.772-1.781-.354-.751-.643-1.439-.643-1.53 0-.091-.102-.268-.228-.393-.126-.126-.355-.473-.509-.771-.154-.298-.389-.583-.521-.634-.133-.051-.242-.181-.242-.288 0-.275-1.038-1.313-1.607-1.607-.262-.135-.523-.309-.58-.387-.386-.531-3.974-.763-5.563-.36M165 42.688c-.687.079-1.275.22-1.305.312a.27.27 0 0 1-.24.167c-1.389 0-3.81 2.654-4.068 4.46-.178 1.246-.178 19.5 0 20.746.258 1.806 2.679 4.46 4.068 4.46.101 0 .209.073.239.161.125.362 3.469.503 11.91.505 9.703.001 9.835-.007 10.115-.648.295-.671.48-.702.788-.128l.282.527 4.174.044 4.173.045.362-.586c.199-.323.418-.586.486-.586s.292-.338.498-.75c.206-.413.433-.75.503-.75.071 0 .303-.338.515-.75.212-.413.436-.75.497-.75s.279-.338.485-.75c.206-.413.443-.75.526-.75.084 0 .301-.293.484-.652.183-.358.391-.677.462-.708.16-.07.7-.953.826-1.349.051-.16.157-.291.236-.291.079 0 .292-.291.474-.646.433-.851.765-.965 1.133-.391.159.249.382.551.496.669.113.119.329.476.479.792.15.317.332.576.404.576.072 0 .29.304.484.676.194.373.539.878.767 1.124.227.245.414.516.414.601 0 .085.112.273.249.418.383.406 1.751 2.497 1.751 2.676 0 .088.15.24.333.338.183.098.333.275.333.392 0 .118.246.49.546.828l.546.613h7.953l.427-.458c.435-.467.592-1.446.27-1.678-.193-.138-.519-.65-.738-1.155-.089-.207-.225-.375-.302-.375-.077 0-.309-.3-.515-.667-.206-.367-.427-.667-.49-.667s-.208-.206-.32-.458c-.113-.252-.431-.721-.707-1.042-.276-.321-.502-.667-.503-.769 0-.102-.169-.364-.376-.583-.207-.219-.751-.96-1.209-1.648-.457-.687-.925-1.31-1.04-1.383-.115-.073-.208-.224-.208-.335 0-.111-.187-.403-.414-.648-.228-.246-.573-.751-.767-1.124-.194-.372-.419-.676-.499-.676-.081 0-.3-.3-.487-.667-.187-.367-.414-.667-.503-.667-.09 0-.164-.15-.164-.333 0-.183.067-.333.148-.333.081 0 .264-.246.407-.546.142-.3.452-.769.688-1.042.236-.273.521-.702.634-.954.112-.252.26-.458.327-.458.068 0 .276-.3.463-.667.187-.367.405-.667.484-.667.079 0 .185-.131.236-.291.125-.394.631-1.198.988-1.571.161-.167.292-.379.292-.471 0-.092.131-.304.292-.471.357-.373.863-1.177.988-1.571.051-.16.157-.291.236-.291.079 0 .297-.3.484-.667.187-.367.406-.667.487-.667.08 0 .305-.304.498-.676.194-.371.49-.823.659-1.004.587-.631.752-1.595.392-2.29l-.318-.613-4.169-.044-4.169-.045-.855 1.295c-.471.711-.95 1.406-1.066 1.544-.115.137-.359.546-.542.909-.184.362-.502.842-.709 1.066-.206.224-.375.505-.375.624 0 .12-.099.278-.221.351-.122.073-.403.471-.625.883-.222.413-.496.848-.608.966-.112.119-.327.476-.477.792-.15.317-.336.576-.413.576-.077 0-.262.256-.411.57-.27.569-.911.452-.911-.166 0-.104-.169-.375-.375-.603-.207-.228-.523-.708-.703-1.066-.18-.359-.423-.765-.54-.902-.394-.462-1.716-2.502-1.716-2.648 0-.079-.107-.234-.239-.343-.131-.109-.395-.497-.585-.863-.191-.366-.496-.825-.678-1.02-.182-.196-.331-.435-.331-.532 0-.098-.251-.459-.557-.802l-.556-.625-3.985.003c-4.339.003-4.406.017-4.79 1.056-.128.343.196 1.607.411 1.607.075 0 .29.3.477.667.187.367.396.667.465.667s.31.337.535.75c.225.412.456.75.512.75.056 0 .276.337.488.75.212.412.444.75.515.75.07 0 .297.337.503.75.206.412.424.75.485.75s.285.337.497.75c.212.412.441.75.509.75s.283.304.476.676c.194.371.502.836.684 1.031.182.196.331.432.331.527 0 .094.151.323.336.51 1.213 1.226 1.834 2.668 1.372 3.189-.494.558-1.041 1.378-1.041 1.56a.17.17 0 0 1-.164.173c-.089 0-.316.3-.503.667-.187.367-.406.667-.487.667-.08 0-.305.304-.499.676-.194.373-.539.878-.767 1.124-.227.245-.414.537-.414.648 0 .111-.093.262-.208.335-.115.073-.583.696-1.04 1.383-.458.688-1.002 1.429-1.209 1.648-.207.219-.376.481-.376.583-.001.102-.219.442-.486.754-.268.313-.586.763-.708 1-.123.238-.348.526-.501.641-.153.114-.327.429-.386.698-.102.461-.586.577-.586.14 0-.272-.737-1.797-.869-1.797-.067 0-.283-.375-.48-.833-.197-.459-.415-.834-.484-.834-.07 0-.222-.243-.339-.541-.118-.298-.478-.786-.801-1.084l-.587-.541H168v-3.834h6.546c6.887 0 7.287-.041 7.287-.759 0-.132.075-.241.167-.241.105 0 .167-1.055.167-2.833 0-1.778-.062-2.833-.167-2.833-.092 0-.167-.11-.167-.244 0-.615-.566-.672-7.291-.724l-6.542-.05v-3.816h14.273l.587-.541c.323-.298.683-.786.801-1.084.117-.298.269-.541.339-.541.069 0 .287-.375.484-.834.197-.458.413-.833.48-.833.137 0 .869-1.53.869-1.815 0-.102.075-.185.167-.185.092 0 .167-.187.167-.417 0-.229-.059-.416-.13-.416-.072 0-.211-.214-.31-.475-.13-.344-.328-.504-.724-.583-.802-.16-18.54-.09-20.003.079m60.369-.023c-.577.065-1.214.198-1.417.295-.203.097-.706.332-1.119.522-.838.385-2.131 1.57-2.504 2.294-.135.261-.307.519-.382.575-.442.323-.509 1.84-.571 12.982-.088 15.714-.627 14 4.403 14h3.599l.395-.425c.388-.419.394-.477.394-3.917V65.5h3.91c3.769 0 6.423-.215 6.423-.52 0-.081.129-.147.287-.147.348 0 2.596-.688 2.713-.831.046-.056.421-.307.833-.559 1.783-1.09 2.887-2.14 3.443-3.276.067-.138.217-.346.333-.464.116-.117.343-.642.505-1.166.161-.525.371-1.007.465-1.073.266-.184.23-6.667-.037-6.756-.115-.038-.209-.203-.209-.368 0-.442-.478-1.731-.712-1.923-.113-.092-.314-.379-.447-.637-.272-.526-2.32-2.613-2.564-2.613-.086 0-.24-.107-.342-.237-.304-.388-2.452-1.382-3.423-1.584-.498-.104-.995-.263-1.104-.353-.49-.407-10.035-.651-12.872-.328m29.056.026c-.638.081-1.2.206-1.25.277-.051.071-.426.237-.835.369-.946.305-2.629 1.932-3.186 3.08l-.404.833v21.5l.404.833c.557 1.148 2.24 2.775 3.186 3.08.409.132.782.295.83.362.333.466 20.189.739 21.463.295.816-.284 1.154-2.189.463-2.614-.109-.067-.352-.423-.54-.789-.709-1.388-1.456-2.669-1.587-2.723-.075-.03-.138-.143-.141-.25-.003-.107-.203-.419-.444-.694l-.439-.5-7.306-.047-7.306-.046v-3.824h6.509c8.389 0 7.652.373 7.656-3.864.003-4.091.61-3.802-7.988-3.802h-6.177v-3.824l7.306-.046 7.306-.047.439-.5c.241-.275.441-.594.444-.708.003-.115.068-.209.144-.209.076 0 .313-.375.528-.833.215-.458.437-.833.493-.833.057 0 .284-.41.505-.912.22-.501.489-.945.597-.986.708-.272.345-2.308-.462-2.589-.634-.221-18.472-.212-20.208.011m64.091-.011c-.954.073-1.779.202-1.833.286-.055.084-.397.207-.761.274-.78.144-2.136.588-2.255.738-.046.058-.436.271-.867.474-2.091.984-4.633 4.058-4.633 5.601 0 .154-.075.28-.167.28-.1 0-.167.667-.167 1.667 0 .917.067 1.667.148 1.667.081 0 .197.327.257.727.128.855 1.337 2.675 2.096 3.156.275.174.499.373.499.443s.375.306.834.523c.458.218.833.444.833.503s.469.28 1.042.492c.573.211 1.079.436 1.125.499.099.137 2.766.823 3.198.823.166 0 .302.066.302.145 0 .08.881.317 1.958.527 1.077.21 1.996.431 2.042.49.045.06.758.284 1.583.498.825.214 1.537.442 1.583.508.046.066.327.244.625.397.672.344.705.824.084 1.221a5.713 5.713 0 0 0-.665.49c-.546.52-6.733.815-8.21.391-.541-.155-2.289-1.234-2.52-1.555-.142-.198-1.31-.214-1.45-.02-.178.248-1.164.908-1.357.908-.095 0-.173.068-.173.151 0 .082-.257.301-.57.486-.547.322-.734.467-1.629 1.257a6.462 6.462 0 0 1-1.036.69c-1.288.678-1.27 2.211.035 3.085.339.226.655.464.703.528.126.168 1.649.803 1.927.803.13 0 .236.067.236.148 0 .082.694.311 1.542.511.848.199 1.676.435 1.84.524.993.539 10.555.548 11.558.011.17-.092.929-.333 1.685-.537.757-.203 1.375-.434 1.375-.513 0-.079.086-.144.19-.144.337 0 1.72-.74 1.945-1.041.12-.161.298-.292.396-.292.156 0 .966-.795 2.067-2.027.192-.214.488-.765.658-1.223.171-.458.389-.887.486-.952.266-.181.235-4.667-.033-4.756-.115-.039-.209-.179-.209-.313 0-.647-2.253-3.562-2.754-3.562-.058 0-.494-.254-.967-.564-.474-.31-1.162-.666-1.529-.792-.366-.125-.751-.306-.853-.403-.103-.096-.778-.319-1.5-.496-.723-.176-1.355-.377-1.405-.447-.051-.07-.876-.286-1.834-.481-.957-.194-1.816-.409-1.908-.478-.091-.068-.916-.295-1.833-.502-.917-.208-1.704-.426-1.75-.484-.046-.058-.458-.258-.915-.443-.848-.343-1.11-.732-.719-1.065.823-.7 1.083-.842 1.822-1.001 1.256-.269 6.124-.229 6.935.057.366.129.992.554 1.39.945.867.849 1.822.985 2.459.348.199-.198.42-.361.491-.361.071 0 .368-.206.66-.458.291-.252.918-.721 1.392-1.042.474-.321 1.005-.718 1.181-.883.176-.164.56-.433.853-.596.947-.526 1.04-1.993.175-2.766-.842-.753-.997-.855-1.896-1.24-.501-.215-.949-.446-.995-.515-.094-.141-2.74-.833-3.184-.833-.158 0-.313-.075-.343-.166-.135-.4-5.729-.594-9.29-.321m24.484.008c-.687.079-1.275.22-1.305.312a.27.27 0 0 1-.24.167c-.806 0-2.372 1.236-3.33 2.629-.852 1.239-.875 1.555-.875 12.204 0 10.649.023 10.965.875 12.204.958 1.393 2.524 2.629 3.33 2.629.101 0 .209.073.239.161.125.362 3.469.503 11.91.505 9.81.001 9.863-.002 10.123-.691.099-.261.238-.475.31-.475.071 0 .13-.187.13-.416 0-.229-.075-.417-.167-.417-.092 0-.167-.083-.167-.185 0-.285-.732-1.815-.869-1.815-.067 0-.283-.375-.48-.833-.197-.459-.415-.834-.484-.834-.07 0-.222-.243-.339-.541-.118-.298-.478-.786-.801-1.084l-.587-.541H346v-3.834h6.546c6.887 0 7.287-.041 7.287-.759 0-.132.075-.241.167-.241.105 0 .167-1.055.167-2.833 0-1.778-.062-2.833-.167-2.833-.092 0-.167-.11-.167-.244 0-.615-.566-.672-7.291-.724l-6.542-.05v-3.816h14.273l.587-.541c.323-.298.683-.786.801-1.084.117-.298.269-.541.339-.541.069 0 .287-.375.484-.834.197-.458.413-.833.48-.833.137 0 .869-1.53.869-1.815 0-.102.075-.185.167-.185.092 0 .167-.187.167-.417 0-.229-.059-.416-.13-.416-.072 0-.211-.214-.31-.475-.13-.344-.328-.504-.724-.583-.802-.16-18.54-.09-20.003.079m32.264-.005c-.908.075-1.696.205-1.75.289-.053.085-.434.21-.845.279-.854.143-2.029.532-2.162.717-.05.068-.428.27-.84.447-.848.366-1.084.553-2.677 2.123-.625.616-1.26 1.404-1.409 1.75-.15.346-.398.886-.552 1.2-.355.729-.414 4.856-.071 4.97a.34.34 0 0 1 .209.306c0 .497.805 1.712 1.666 2.517.872.814 1.103.986 1.75 1.306.367.181.689.378.717.437.027.06.515.28 1.083.49.569.21 1.071.434 1.117.497.046.064.758.277 1.583.475.825.198 1.619.424 1.764.504.145.079 1.082.309 2.083.511 1.001.202 1.895.422 1.987.489.091.068.841.299 1.666.514.825.215 1.538.441 1.584.503.045.062.327.238.625.391.614.314.718.829.221 1.095-.176.094-.42.267-.542.383-1.045.998-9.638 1.121-9.638.137 0-.059-.222-.239-.494-.4a4.676 4.676 0 0 1-.754-.552c-.565-.565-2.517.097-3.135 1.064-.073.115-.224.208-.335.208-.111 0-.388.171-.617.38a11.54 11.54 0 0 1-.998.786 8.861 8.861 0 0 0-.818.634 2.152 2.152 0 0 1-.628.378c-1.779.676-.328 3.31 2.288 4.153.408.131.781.295.83.363.048.068.761.285 1.583.48.822.196 1.635.431 1.806.521 1.01.536 10.585.529 11.545-.009.171-.095.909-.331 1.64-.523.732-.192 1.369-.401 1.417-.464.048-.064.457-.29.909-.503 2.037-.96 4.12-3.213 4.592-4.966.12-.447.282-.884.361-.971.187-.209.184-3.259-.004-3.259-.08 0-.194-.308-.254-.684a4.203 4.203 0 0 0-.984-2.096c-.652-.762-1.768-1.886-1.874-1.886-.056 0-.49-.254-.964-.564-.474-.31-1.162-.666-1.528-.791-.367-.125-.705-.275-.75-.334-.115-.148-2.299-.811-2.671-.811-.166 0-.327-.07-.357-.154-.031-.085-.881-.325-1.889-.533-1.008-.208-1.871-.428-1.917-.49-.046-.061-.83-.274-1.744-.474-.914-.2-1.701-.427-1.75-.504-.049-.078-.409-.237-.799-.354-1.065-.318-1.427-1.491-.46-1.491.139 0 .253-.072.253-.161 0-.412 1.756-.673 4.525-.673 3.269 0 3.939.161 4.981 1.192 1.056 1.046 2.703.728 3.795-.733.12-.161.312-.292.427-.292.115 0 .355-.133.533-.296.177-.163.585-.479.906-.703.321-.224.689-.509.818-.634.128-.126.411-.296.628-.378.659-.251.937-1.496.506-2.269-.596-1.069-4.813-3.053-6.49-3.053-.147 0-.293-.075-.323-.166-.136-.402-5.955-.6-9.375-.318M236.74 50.671c1.543.771 2.118 2.221 1.757 4.428l-.163 1.001c0 .01-.231.259-.514.554-.83.869-1.549 1.034-4.956 1.136l-3.053.091-.489.489c-.269.269-.49.539-.492.601-.002.062-.151.3-.33.529-.326.416-.326.412-.33-4.388l-.003-4.805 4.041.06c3.13.045 4.153.114 4.532.304M56 64.667c0 .091.112.166.25.166.137 0 .25-.075.25-.166 0-.092-.113-.167-.25-.167-.138 0-.25.075-.25.167m16.639 1.79c-.279.062-.573.543-.332.543.194 0 .789-.463.693-.539-.046-.036-.208-.038-.361-.004m-41.402 12.47c.223.164.265.951.305 5.756l.046 5.567.039-5.756c.039-5.72.038-5.756-.305-5.756-.298 0-.309.026-.085.189m30.055 13.805c-.424.321-.358.434.123.211.229-.106.416-.249.417-.318.002-.185-.211-.143-.54.107m-20.02 3.514c.053.14.201.254.329.254.326 0 .289-.125-.097-.331-.269-.144-.312-.13-.232.077m13.968-.001c-.274.207-.282.245-.049.25a.413.413 0 0 0 .369-.245c.119-.311.085-.311-.32-.005"/><path fill="#04044c" d="M75.833 24.905c0 10.118-.063 9.558 1 8.898a45.898 45.898 0 0 1 2.417-1.399c1.015-.534 6.831-3.839 7.417-4.214.229-.147.679-.401 1-.563.32-.163.883-.479 1.25-.703.366-.224.854-.501 1.083-.614 1.734-.859 2.192-1.323 1.668-1.69-.183-.129-.302-.264-.264-.302.037-.037-.11-.079-.327-.092-.451-.026-1.29-.624-1.118-.796.063-.063-.027-.06-.2.006-.235.09-.28.065-.177-.1.091-.147.072-.181-.056-.102-.106.066-.801-.223-1.544-.641-.743-.418-1.426-.76-1.518-.76-.091 0-.125-.108-.074-.241.065-.17.013-.211-.176-.139-.181.07-.229.039-.146-.095.068-.11.062-.189-.014-.176-.362.063-.72-.039-.953-.271-.141-.141-.521-.367-.845-.503-.324-.135-.589-.287-.589-.337 0-.05.086-.037.192.028.117.072.147.046.078-.066-.063-.102-.217-.146-.342-.098-.125.048-.278.006-.34-.093a.214.214 0 0 0-.295-.067c-.113.07-.147.019-.088-.134.066-.173-.013-.244-.264-.236-.197.007-.346-.063-.33-.155.015-.092-.137-.176-.339-.188-.425-.026-1.708-.859-1.649-1.072.021-.08-.075-.101-.215-.047-.14.054-.383-.017-.54-.156-.157-.139-.641-.419-1.077-.622-.435-.202-.791-.435-.791-.517 0-.081-.117-.148-.26-.148-.143 0-.214-.074-.158-.165.058-.093-.007-.123-.151-.068-.139.054-.48-.065-.759-.263l-.506-.36v9.261M48.411 40.5c0 5.087.021 7.169.047 4.625.026-2.544.026-6.706 0-9.25-.026-2.544-.047-.463-.047 4.625"/><path fill="#041b24" d="M64.625 28.125c.024 3.277.063 7.421.087 9.208.025 1.788.063-.893.083-5.958.021-5.065-.018-9.208-.087-9.208-.068 0-.106 2.681-.083 5.958m-.891-5.042c-.266.229-.564.417-.661.417-.097 0-.322.131-.5.292-.178.16-.717.473-1.198.695-.481.222-.875.455-.875.518 0 .171-1.84.844-2.014.737-.082-.051-.111.005-.066.124.051.133-.225.38-.708.634-.435.229-.923.548-1.085.708-.161.161-.406.292-.544.292-.137 0-.383.134-.547.297-.164.164-.707.473-1.208.688-.501.215-.949.437-.995.494-.045.058-.458.288-.916.512-.458.224-.945.532-1.083.685-.138.153-.51.379-.827.502-.317.124-.711.359-.875.523-.164.165-.411.299-.549.299-.219 0-.25 1.093-.25 8.833 0 8.035.065 9.44.397 8.576.054-.141.362-.368.684-.502.322-.135.586-.309.586-.387 0-.078.356-.273.792-.434.435-.162.867-.387.96-.501.184-.226 1.621-.918 1.906-.918a.175.175 0 0 0 .175-.173c0-.095.338-.317.75-.494.413-.177.75-.39.75-.474 0-.083.375-.313.834-.51.458-.197.833-.422.833-.5 0-.078.45-.31 1-.516.55-.206 1-.422 1-.481s.394-.292.875-.518c.481-.226 1.014-.538 1.184-.693.17-.155.526-.372.792-.482.265-.11.482-.249.482-.309s.337-.257.749-.438l.748-.329.002-8.792c.001-4.835-.025-8.791-.056-8.791-.032 0-.275.187-.542.416m-15.156 17.25c0 4.996.021 7.04.047 4.542s.026-6.585 0-9.083-.047-.455-.047 4.541"/><path fill="#045938" d="M63.708 22.429c-.573.325-1.041.629-1.041.676 0 .092 1.811-.894 2.075-1.13.293-.262.013-.14-1.034.454m-1.916 1.082c-.344.182-.625.368-.625.413 0 .046.3-.07.666-.257.367-.187.667-.376.667-.42 0-.109-.001-.109-.708.264m-1.334.751c-.623.338-.585.479.042.155.275-.143.5-.294.5-.338 0-.107-.018-.101-.542.183m-2.333 1.333c-.623.338-.585.479.042.155.275-.142.5-.294.5-.338 0-.107-.018-.101-.542.183m-1.542.905c-.275.182-.414.332-.31.332.182.001 1.065-.65.894-.659-.046-.002-.309.145-.584.327m-1.793.982c-1.111.652-1.205.808-.177.291.475-.238.911-.51.968-.603.143-.23.116-.22-.791.312m-2.707 1.542c-.825.466-1.575.925-1.666 1.02-.092.095.283-.076.833-.379 1.732-.956 2.417-1.361 2.417-1.431 0-.105.003-.107-1.584.79m22.292 6.26c-.206.04-.375.135-.375.212 0 .172.638.019.762-.183.05-.08.068-.136.04-.124a4.43 4.43 0 0 1-.427.095m-40.042 6.624c0 .046.225.2.5.342.275.142.5.221.5.175 0-.046-.225-.199-.5-.342-.275-.142-.5-.221-.5-.175m27.125.492c-1.228.698-1.458.934-.375.383.769-.39 1.613-.947 1.417-.934-.046.004-.515.251-1.042.551m-3.252 1.838c-1.157.718-1.347.949-.289.349 1.064-.603 1.534-.924 1.328-.907-.089.007-.557.258-1.039.558m-1.916 1.081c-.666.427-.789.6-.207.292.699-.371 1.03-.608.834-.596-.092.005-.374.142-.627.304m-16.123-.078c0 .046.225.2.5.342.275.143.5.221.5.176 0-.046-.225-.2-.5-.342-.275-.143-.5-.221-.5-.176m9.381 3.927c-.478.274-.989.499-1.135.499-.146 0-.218.077-.16.171.094.152 1.683-.607 2.155-1.03.288-.257.02-.145-.86.36m-2.881-.278c0 .112 1.197.801 1.269.73.033-.034-.239-.229-.605-.434-.365-.206-.664-.339-.664-.296m30.5 17.351c0 .046.225.2.5.342.275.143.5.221.5.176 0-.046-.225-.2-.5-.342-.275-.143-.5-.221-.5-.176m1.166.667c0 .046.225.2.5.342.275.142.5.221.5.175 0-.046-.225-.199-.5-.342-.275-.142-.5-.221-.5-.175m1.167.667c0 .046.225.199.5.342.275.142.5.221.5.175 0-.046-.225-.2-.5-.342-.275-.142-.5-.221-.5-.175m7.167 4.1c.434.296 1.166.67 1.166.596 0-.093-1.15-.772-1.301-.768-.063.001-.003.079.135.172M88 72.41c0 .046.3.236.667.423.366.187.666.303.666.257 0-.046-.3-.236-.666-.423-.367-.187-.667-.303-.667-.257m2.667 1.498c0 .046.225.2.5.342.275.142.5.221.5.175 0-.046-.225-.199-.5-.342-.275-.142-.5-.221-.5-.175"/><path fill="#04141c" d="M64.167 22.456c-.138.053-.536.276-.886.496a35.3 35.3 0 0 1-1.167.698 600.401 600.401 0 0 0-4.128 2.347c-.236.139-1.234.703-2.217 1.253-.983.55-2.064 1.16-2.403 1.355-.702.404-3.143 1.783-4.071 2.299l-.621.346-.045 9.127c-.039 7.803-.012 9.114.19 9.036.199-.076 3.582-1.954 4.348-2.414.364-.218 5.759-3.281 6.583-3.737.183-.101.521-.302.75-.446.229-.144 1.26-.737 2.292-1.317l1.875-1.056v-9.055c0-4.98-.057-9.049-.125-9.042a2.075 2.075 0 0 0-.375.11m.165 9.002-.002 8.792-.748.329c-.412.181-.749.378-.749.438s-.217.199-.482.309c-.266.11-.622.327-.792.482-.17.155-.703.467-1.184.693-.481.226-.875.459-.875.518s-.45.275-1 .481c-.55.206-1 .438-1 .516 0 .078-.375.303-.833.5-.459.197-.834.427-.834.51 0 .084-.337.297-.75.474-.412.177-.75.399-.75.494a.175.175 0 0 1-.175.173c-.285 0-1.722.692-1.906.918-.093.114-.525.339-.96.501-.436.161-.792.356-.792.434 0 .078-.264.252-.586.387-.322.134-.63.361-.684.502-.332.864-.397-.541-.397-8.576 0-7.74.031-8.833.25-8.833.138 0 .385-.134.549-.299.164-.164.558-.399.875-.523.317-.123.689-.349.827-.502.138-.153.625-.461 1.083-.685.458-.224.871-.454.916-.512.046-.057.494-.279.995-.494.501-.215 1.044-.524 1.208-.688.164-.163.41-.297.547-.297.138 0 .383-.131.544-.292.162-.16.649-.479 1.083-.708.435-.229.79-.463.79-.521 0-.058.45-.273 1-.479.55-.206 1-.427 1-.492s.394-.299.875-.521c.481-.222 1.02-.535 1.198-.695.178-.161.403-.292.5-.292.097 0 .395-.188.661-.417.267-.229.51-.416.542-.416.031 0 .057 3.956.056 8.791"/><path fill="#042820" d="M50.125 30.262c-.623.338-.585.479.042.155.275-.143.5-.294.5-.338 0-.107-.018-.101-.542.183m12.667 11.249c-.344.182-.625.368-.625.413 0 .046.3-.07.666-.257.367-.187.667-.376.667-.42 0-.109-.001-.109-.708.264"/></g></svg>