<svg width="835" height="924" viewBox="0 0 835 924" fill="none" xmlns="http://www.w3.org/2000/svg">
<path d="M618 108.228C618 53.8721 661.903 9.80615 716.059 9.80615H733.709C787.865 9.80615 831.767 53.8721 831.767 108.228V824.746C831.767 879.103 787.865 923.169 733.709 923.169H716.059C661.903 923.169 618 879.103 618 824.746V108.228Z" fill="#0668E1"/>
<path d="M120.063 9.06104H102.385C48.1468 9.06104 4.17773 53.1453 4.17773 107.526V824.342C4.17773 878.722 48.1468 922.806 102.385 922.806H120.063C174.301 922.806 218.27 878.722 218.27 824.342V107.526C218.27 53.1453 174.301 9.06104 120.063 9.06104Z" fill="#0668E1"/>
<path d="M776.261 15.9119L760.159 8.66413C710.758 -13.5819 652.775 8.48843 630.652 57.9572L319.501 753.741C297.378 803.208 319.493 861.346 368.895 883.59L384.998 890.839C434.401 913.084 492.384 891.015 514.505 841.545L825.656 145.761C847.779 96.2923 825.664 38.1577 776.261 15.9119Z" fill="#FE784F"/>
<path d="M9.29711 155.24C-14.3781 102.933 8.72238 41.3755 60.8932 17.7472L77.8969 10.0463C130.067 -13.582 191.554 9.66753 215.23 61.9751L527.311 751.469C550.986 803.775 527.886 865.334 475.714 888.963L458.711 896.664C406.539 920.29 345.054 897.041 321.378 844.735L9.29711 155.24Z" fill="#0080FB"/>
</svg>
