<svg width="110" height="110" viewBox="0 0 110 110" fill="none" xmlns="http://www.w3.org/2000/svg">
<g clip-path="url(#clip0_1248_53)">
<path d="M70.5879 26.6677C70.5879 22.3145 74.1106 18.7854 78.4561 18.7854H79.8723C84.2178 18.7854 87.7405 22.3145 87.7405 26.6677V84.0511C87.7405 88.4044 84.2178 91.9335 79.8723 91.9335H78.4561C74.1106 91.9335 70.5879 88.4044 70.5879 84.0511V26.6677Z" fill="#0668E1"/>
<path d="M30.6335 18.7256H29.2151C24.863 18.7256 21.335 22.2561 21.335 26.6113V84.0186C21.335 88.3738 24.863 91.9043 29.2151 91.9043H30.6335C34.9856 91.9043 38.5136 88.3738 38.5136 84.0186V26.6113C38.5136 22.2561 34.9856 18.7256 30.6335 18.7256Z" fill="#0668E1"/>
<path d="M83.2872 19.2743L81.9952 18.6939C78.0313 16.9123 73.3787 18.6798 71.6036 22.6416L46.637 78.3645C44.8619 82.3262 46.6364 86.9823 50.6003 88.7637L51.8924 89.3442C55.8565 91.1258 60.509 89.3583 62.284 85.3965L87.2506 29.6735C89.0258 25.7117 87.2513 21.0559 83.2872 19.2743Z" fill="#FE784F"/>
<path d="M21.746 30.4325C19.8463 26.2434 21.6999 21.3135 25.886 19.4212L27.2504 18.8045C31.4365 16.9122 36.3702 18.7741 38.27 22.9633L63.3112 78.1825C65.2108 82.3715 63.3573 87.3015 59.1711 89.1939L57.8068 89.8106C53.6205 91.7028 48.687 89.8408 46.7872 85.6518L21.746 30.4325Z" fill="#0080FB"/>
</g>
<defs>
<clipPath id="clip0_1248_53">
<rect width="67" height="74" fill="white" transform="translate(21 18)"/>
</clipPath>
</defs>
</svg>
